<?xml version="1.0" encoding="utf-8"?>
<!-- Generator: Adobe Illustrator 15.1.0, SVG Export Plug-In . SVG Version: 6.00 Build 0)  -->
<!DOCTYPE svg PUBLIC "-//W3C//DTD SVG 1.1//EN" "http://www.w3.org/Graphics/SVG/1.1/DTD/svg11.dtd">
<svg version="1.1" id="Layer_1" xmlns="http://www.w3.org/2000/svg" xmlns:xlink="http://www.w3.org/1999/xlink" x="0px" y="0px"
	 width="20px" height="20px" viewBox="0 0 20 20" enable-background="new 0 0 20 20" xml:space="preserve">
<path fill="#FFFFFF" d="M10,0C4.478,0,0,4.477,0,10c0,5.522,4.478,10,10,10c5.524,0,10-4.478,10-10S15.524,0,10,0z M14.682,12.776
	c0,0.943-0.346,1.722-1.035,2.334c-0.69,0.612-1.687,0.989-2.989,1.133v2.119H9.36v-2.061c-1.615-0.026-2.939-0.273-3.975-0.742
	V13.5c0.56,0.274,1.214,0.503,1.963,0.689c0.749,0.185,1.419,0.28,2.011,0.288v-3.652l-0.82-0.304
	c-1.068-0.41-1.847-0.9-2.339-1.469c-0.492-0.57-0.737-1.274-0.737-2.115c0-0.898,0.35-1.637,1.05-2.217
	c0.7-0.579,1.648-0.931,2.847-1.055V2.024h1.298v1.611c1.322,0.045,2.575,0.312,3.759,0.801l-0.712,1.787
	c-1.023-0.404-2.039-0.645-3.047-0.723v3.555l0.742,0.283c1.237,0.475,2.093,0.977,2.568,1.504S14.682,12.015,14.682,12.776z
	 M7.758,6.917c0,0.371,0.116,0.68,0.347,0.927c0.23,0.248,0.649,0.492,1.254,0.732V5.54C8.839,5.618,8.442,5.777,8.168,6.019
	S7.758,6.559,7.758,6.917z M12.377,12.923c0-0.377-0.132-0.688-0.396-0.933c-0.264-0.243-0.705-0.48-1.324-0.708v3.116
	C11.804,14.222,12.377,13.73,12.377,12.923z"/>
</svg>
