<?xml version="1.0" encoding="utf-8"?>
<!-- Generator: Adobe Illustrator 15.1.0, SVG Export Plug-In . SVG Version: 6.00 Build 0)  -->
<!DOCTYPE svg PUBLIC "-//W3C//DTD SVG 1.1//EN" "http://www.w3.org/Graphics/SVG/1.1/DTD/svg11.dtd">
<svg version="1.1" id="Layer_1" xmlns="http://www.w3.org/2000/svg" xmlns:xlink="http://www.w3.org/1999/xlink" x="0px" y="0px"
	 width="20px" height="20px" viewBox="0 0 20 20" enable-background="new 0 0 20 20" xml:space="preserve">
<g>
	<path id="Page" fill="#FFFFFF" stroke="#FFFFFF" stroke-width="0.4877" stroke-miterlimit="10" d="M14.562,2.532
		c-1.26-1.224-2.616-2.206-3.73-2.34c-0.059-0.009-0.122-0.014-0.195-0.016H3.315c-0.117,0-0.231,0.044-0.314,0.131
		C2.92,0.39,2.872,0.504,2.872,0.623v18.616c0,0.104,0.044,0.225,0.13,0.313c0.084,0.085,0.196,0.133,0.315,0.133h13.252
		c0.116,0,0.227-0.046,0.31-0.132c0.085-0.082,0.14-0.194,0.14-0.313V6.851C16.985,5.415,15.862,3.846,14.562,2.532z M13.938,3.162
		c0.58,0.569,1.104,1.213,1.492,1.832c-0.347-0.135-0.692-0.233-1.024-0.312c-0.738-0.165-1.458-0.231-1.896-0.257
		c0.002-0.096,0.004-0.205,0.004-0.323c0-0.628-0.044-1.524-0.256-2.313c-0.004-0.007-0.004-0.016-0.007-0.021
		C12.803,2.132,13.402,2.616,13.938,3.162z M16.121,18.792H3.759V1.067h6.884v0.001c0.301-0.018,0.561,0.28,0.758,0.958
		c0.181,0.647,0.225,1.49,0.225,2.076c0.002,0.428-0.019,0.714-0.019,0.714L11.57,5.289l0.473,0.006
		c0.002,0,1.095,0.013,2.167,0.255c1.029,0.223,1.833,0.667,1.909,1.169c0.004,0.045,0.004,0.088,0.004,0.132v11.94H16.121z"/>
	
		<rect x="5.588" y="5.643" fill="#FFFFFF" stroke="#FFFFFF" stroke-width="0.4877" stroke-miterlimit="10" width="4.713" height="0.724"/>
	
		<rect x="5.613" y="8.752" fill="#FFFFFF" stroke="#FFFFFF" stroke-width="0.4877" stroke-miterlimit="10" width="8.663" height="0.721"/>
	
		<rect x="5.613" y="11.864" fill="#FFFFFF" stroke="#FFFFFF" stroke-width="0.4877" stroke-miterlimit="10" width="8.663" height="0.723"/>
	
		<rect x="5.613" y="15.028" fill="#FFFFFF" stroke="#FFFFFF" stroke-width="0.4877" stroke-miterlimit="10" width="8.663" height="0.721"/>
</g>
</svg>
