<?xml version="1.0" encoding="utf-8"?>
<!-- Generator: Adobe Illustrator 15.1.0, SVG Export Plug-In . SVG Version: 6.00 Build 0)  -->
<!DOCTYPE svg PUBLIC "-//W3C//DTD SVG 1.1//EN" "http://www.w3.org/Graphics/SVG/1.1/DTD/svg11.dtd">
<svg version="1.1" id="Layer_1" xmlns="http://www.w3.org/2000/svg" xmlns:xlink="http://www.w3.org/1999/xlink" x="0px" y="0px"
	 width="20px" height="20px" viewBox="0 0 20 20" enable-background="new 0 0 20 20" xml:space="preserve">
<path fill="#336799" d="M10,0C4.476,0,0,4.477,0,10c0,5.523,4.477,10,10,10c5.523,0,10-4.477,10-10C20,4.477,15.523,0,10,0z
	 M8.579,12.855v-0.746c0-0.645,0.138-1.205,0.413-1.681c0.275-0.477,0.779-0.984,1.511-1.521c0.705-0.504,1.17-0.913,1.396-1.229
	c0.226-0.315,0.338-0.668,0.338-1.058c0-0.437-0.161-0.769-0.483-0.997c-0.321-0.228-0.772-0.342-1.35-0.342
	c-1.007,0-2.155,0.329-3.445,0.987L5.859,4.063c1.497-0.839,3.085-1.259,4.765-1.259c1.383,0,2.481,0.333,3.298,0.997
	c0.816,0.665,1.225,1.551,1.225,2.659c0,0.739-0.168,1.377-0.504,1.914s-0.974,1.142-1.914,1.813
	c-0.645,0.477-1.053,0.838-1.224,1.086c-0.171,0.25-0.257,0.574-0.257,0.979v0.604H8.579z M8.256,16.301
	c0-0.564,0.151-0.99,0.454-1.279c0.302-0.287,0.742-0.433,1.319-0.433c0.558,0,0.989,0.147,1.294,0.442
	c0.306,0.296,0.459,0.719,0.459,1.27c0,0.53-0.155,0.948-0.464,1.254c-0.31,0.307-0.739,0.459-1.29,0.459
	c-0.564,0-1-0.149-1.31-0.447C8.411,17.268,8.256,16.846,8.256,16.301z"/>
</svg>
