<?xml version="1.0" encoding="utf-8"?>
<!-- Generator: Adobe Illustrator 15.1.0, SVG Export Plug-In . SVG Version: 6.00 Build 0)  -->
<!DOCTYPE svg PUBLIC "-//W3C//DTD SVG 1.1//EN" "http://www.w3.org/Graphics/SVG/1.1/DTD/svg11.dtd">
<svg version="1.1" id="Layer_1" xmlns="http://www.w3.org/2000/svg" xmlns:xlink="http://www.w3.org/1999/xlink" x="0px" y="0px"
	 width="20px" height="20px" viewBox="0 0 20 20" enable-background="new 0 0 20 20" xml:space="preserve">
<path fill="#FFFFFF" d="M10,0C4.476,0,0,4.477,0,10c0,5.523,4.477,10,10,10c5.523,0,10-4.477,10-10C20,4.477,15.523,0,10,0z
	 M10,2.421c1.034,0,1.87,0.837,1.87,1.869c0,1.033-0.836,1.869-1.87,1.869c-1.033,0-1.869-0.836-1.869-1.869
	C8.13,3.258,8.966,2.421,10,2.421z M11.738,15.938c0,0.9-0.778,1.629-1.739,1.629l0,0c-0.959,0-1.738-0.729-1.738-1.629V8.461
	c0-0.9,0.779-1.629,1.738-1.629l0,0c0.959,0,1.739,0.729,1.739,1.629V15.938z"/>
</svg>
