<?xml version="1.0" encoding="utf-8"?>
<!-- Generator: Adobe Illustrator 15.1.0, SVG Export Plug-In . SVG Version: 6.00 Build 0)  -->
<!DOCTYPE svg PUBLIC "-//W3C//DTD SVG 1.1//EN" "http://www.w3.org/Graphics/SVG/1.1/DTD/svg11.dtd">
<svg version="1.1" id="Layer_1" xmlns="http://www.w3.org/2000/svg" xmlns:xlink="http://www.w3.org/1999/xlink" x="0px" y="0px"
	 width="20px" height="20px" viewBox="0 0 20 20" enable-background="new 0 0 20 20" xml:space="preserve">
<g>
	<polygon fill="#FFFFFF" points="9.673,0 7.709,0 5.683,6.255 9.271,6.255 	"/>
	<polygon fill="#FFFFFF" points="9.921,0 10.322,6.255 13.924,6.255 11.892,0 	"/>
	<polygon fill="#FFFFFF" points="10.453,8.847 14.561,8.847 17.709,20 11.085,20 	"/>
	<polygon fill="#FFFFFF" points="9.143,8.847 5.035,8.847 1.889,20 8.511,20 	"/>
	<polygon fill="#FFFFFF" points="20,7.12 0,7.12 0,8.048 2.107,8.048 1.74,9.678 4.097,9.678 3.737,8.048 15.842,8.048 
		15.476,9.678 17.833,9.678 17.468,8.048 20,8.048 	"/>
</g>
</svg>
