<?xml version="1.0" encoding="utf-8"?>
<!-- Generator: Adobe Illustrator 15.1.0, SVG Export Plug-In . SVG Version: 6.00 Build 0)  -->
<!DOCTYPE svg PUBLIC "-//W3C//DTD SVG 1.1//EN" "http://www.w3.org/Graphics/SVG/1.1/DTD/svg11.dtd">
<svg version="1.1" id="Layer_1" xmlns="http://www.w3.org/2000/svg" xmlns:xlink="http://www.w3.org/1999/xlink" x="0px" y="0px"
	 width="20px" height="20px" viewBox="0 0 20 20" enable-background="new 0 0 20 20" xml:space="preserve">
<path fill="#FFFFFF" d="M1.59,0H0v20h14.477H20V0H1.59z M0.5,19.5v-19h0.866L1.9,1.366l1.45,1.301L4.054,3.76l1.44,1.022
	l0.861,1.307l0.349,1.029L6.657,7.656l0.201,0.662L7.39,8.484l0.996,1.022l1.306,0.101L9.94,7.993l0.627-0.656l0.78,0.597
	l1.023,0.319l0.607-0.798l0.273-0.023l0.315,0.715L12.826,8.17l-0.594,0.26l-0.637-0.308l-1,0.756l0.455,0.526l0.187,0.662
	l0.349,0.384l-0.033,0.526l0.604,0.449l0.445,1.839l-1.059-0.97l-0.751-0.207l-0.201-0.408l0.067-1.022l-0.158-0.39l-0.756,0.195
	l0.129,1.04l-0.163,1.184l0.425,0.289l0.383,1.111l-0.125,0.928l0.091,0.451l0.866,0.855l0.676,0.828l0.516,0.35l0.896,0.023
	l0.258-0.207l0.531,0.4l0.502,1.078L14.608,19.5H0.5z"/>
</svg>
