<?xml version="1.0" encoding="utf-8"?>
<!-- Generator: Adobe Illustrator 15.1.0, SVG Export Plug-In . SVG Version: 6.00 Build 0)  -->
<!DOCTYPE svg PUBLIC "-//W3C//DTD SVG 1.1//EN" "http://www.w3.org/Graphics/SVG/1.1/DTD/svg11.dtd">
<svg version="1.1" id="Layer_1" xmlns="http://www.w3.org/2000/svg" xmlns:xlink="http://www.w3.org/1999/xlink" x="0px" y="0px"
	 width="20px" height="20px" viewBox="0 0 20 20" enable-background="new 0 0 20 20" xml:space="preserve">
<path fill="#FFFFFF" d="M14.666,0H5.333L0,20h20L14.666,0z M10.667,19.27H9.333V16.6h1.334V19.27z M10.667,3.259H9.333V0.591h1.334
	V3.259z M13.316,11.758c0,0.666-0.243,1.216-0.73,1.647c-0.487,0.433-1.003,0.698-1.923,0.8v1.496H9.329v-1.455
	c-1.14-0.018-1.845-0.193-2.576-0.524v-1.454c0.396,0.192,0.857,0.354,1.386,0.486c0.529,0.13,0.772,0.198,1.19,0.204v-2.579
	l-0.35-0.214c-0.753-0.29-1.304-0.636-1.651-1.038c-0.347-0.402-0.52-0.9-0.52-1.493c0-0.634,0.247-1.156,0.741-1.565
	c0.494-0.409,0.934-0.657,1.78-0.745V4.167h1.333v1.137c0.934,0.033,1.631,0.221,2.468,0.565l-0.503,1.262
	c-0.723-0.285-1.251-0.455-1.964-0.511v2.51L11,9.33c0.873,0.335,1.477,0.689,1.812,1.062S13.316,11.22,13.316,11.758z M8.429,7.62
	c0,0.263,0.082,0.48,0.245,0.655S8.902,8.622,9.33,8.792V6.648C8.962,6.704,8.912,6.816,8.719,6.986
	C8.525,7.157,8.429,7.368,8.429,7.62z M11.689,11.86c0-0.266-0.093-0.486-0.279-0.658c-0.186-0.173-0.309-0.34-0.747-0.5v2.199
	C11.473,12.777,11.689,12.431,11.689,11.86z"/>
</svg>
