<?xml version="1.0" encoding="utf-8"?>
<!-- Generator: Adobe Illustrator 15.1.0, SVG Export Plug-In . SVG Version: 6.00 Build 0)  -->
<!DOCTYPE svg PUBLIC "-//W3C//DTD SVG 1.1//EN" "http://www.w3.org/Graphics/SVG/1.1/DTD/svg11.dtd">
<svg version="1.1" id="Layer_1" xmlns="http://www.w3.org/2000/svg" xmlns:xlink="http://www.w3.org/1999/xlink" x="0px" y="0px"
	 width="20px" height="20px" viewBox="0 0 20 20" enable-background="new 0 0 20 20" xml:space="preserve">
<g>
	<polygon fill="#FFFFFF" points="5.837,4.773 5.912,4.481 5.695,4.429 5.455,4.543 5.603,4.847 	"/>
	<polygon fill="#FFFFFF" points="6.49,5.493 6.187,5.493 5.975,5.722 5.94,5.951 6.101,6.037 	"/>
	<polygon fill="#FFFFFF" points="6.729,5.419 6.729,5.23 6.649,5.23 6.649,5.122 6.29,5.122 6.026,5.23 5.975,5.362 6.181,5.419 	
		"/>
	<polygon fill="#FFFFFF" points="6.827,5.201 6.827,5.419 7.016,5.373 	"/>
	<path fill="#FFFFFF" d="M18.967,8.047c-0.012-0.052-0.023-0.104-0.035-0.156l-0.029,0.034L18.967,8.047z"/>
	<polygon fill="#FFFFFF" points="5.153,3.103 5.153,2.959 4.825,2.959 4.808,3.028 4.607,3.028 4.607,3.045 4.607,3.229 
		5.059,3.229 	"/>
	<polygon fill="#FFFFFF" points="7.428,5.974 7.428,5.796 7.079,5.693 7.056,5.693 7.056,5.859 7.136,5.974 	"/>
	<path fill="#FFFFFF" d="M14.223,4.074l0.084-0.129l0.301-0.061l0.076,0.367l0.162,0.259l0.105,0.123l0.193,0.076l-0.183,0.218
		L14.607,4.96H14.34l0.03-0.316l0.222-0.046L14.573,4.45l-0.207-0.13l-0.144-0.1V4.074L14.223,4.074z M13.727,4.647l0.185-0.294
		l0.247-0.057l0.176,0.077l-0.016,0.198l-0.379,0.267h-0.213V4.647L13.727,4.647z M8.741,5.775L8.549,5.792l0.01-0.132l0.086-0.106
		l0.114,0.09L8.741,5.775z M9.411,5.541L9.28,5.552L9.254,5.679L9.153,5.741L8.992,5.755C8.987,5.717,8.983,5.688,8.983,5.688H8.92
		V5.552h0.263l0.055-0.14L9.342,5.41l0.12,0.025L9.411,5.541z"/>
	<path fill="#FFFFFF" d="M18.115,5.9v0.405l0.179-0.024l0.095,0.003c-0.066-0.152-0.139-0.302-0.215-0.45L18.115,5.9z"/>
	<path fill="#FFFFFF" d="M5.146,3.657c0,0,0.017-0.2,0-0.2c-0.018,0-0.218,0.034-0.218,0.034l-0.32,0.092l0.086,0.103L5.146,3.657z"
		/>
	<polygon fill="#FFFFFF" points="7.382,5.552 7.241,5.465 7.159,5.552 7.27,5.645 	"/>
	<path fill="#FFFFFF" d="M6.673,5.796l0.171-0.032l0.137-0.088V5.493H6.673C6.673,5.522,6.673,5.796,6.673,5.796z"/>
	<path fill="#FFFFFF" d="M19.299,6.306L19.27,6.137l-0.056-0.022c0.026,0.062,0.052,0.127,0.076,0.191H19.299z"/>
	<polygon fill="#FFFFFF" points="6.673,5.957 6.535,5.969 6.49,6.168 6.781,6.168 6.913,6.037 6.913,5.859 6.701,5.888 	"/>
	<path fill="#FFFFFF" d="M2.25,5.095C2.12,5.299,1.997,5.509,1.883,5.724l0.381-0.463L2.25,5.095z"/>
	<path fill="#FFFFFF" d="M16.275,4.355l0.041,0.131l0.629,0.006l0.181-0.268c-0.146-0.178-0.297-0.349-0.453-0.516l-0.002,0.446
		L16.275,4.355z"/>
	<polygon fill="#FFFFFF" points="14.574,4.449 14.593,4.597 14.371,4.643 14.341,4.959 14.607,4.959 14.963,4.925 15.145,4.708 
		14.951,4.632 14.846,4.509 14.684,4.25 14.607,3.884 14.307,3.945 14.223,4.074 14.223,4.22 14.367,4.319 	"/>
	<polygon fill="#FFFFFF" points="14.316,4.57 14.333,4.372 14.157,4.296 13.91,4.353 13.727,4.647 13.727,4.837 13.939,4.837 	"/>
	<path fill="#FFFFFF" d="M9.238,5.413l-0.054,0.14H8.921v0.136h0.062c0,0,0.004,0.029,0.009,0.067l0.162-0.014L9.255,5.68
		l0.026-0.126l0.13-0.011l0.051-0.106L9.343,5.41L9.238,5.413z"/>
	<polygon fill="#FFFFFF" points="8.56,5.659 8.55,5.792 8.741,5.775 8.76,5.642 8.646,5.552 	"/>
	<path fill="#FFFFFF" d="M19.998,9.897c-0.004-0.292-0.018-0.583-0.046-0.869c-0.093-0.953-0.32-1.867-0.662-2.723
		c-0.024-0.063-0.049-0.128-0.075-0.191c-0.455-1.075-1.095-2.053-1.876-2.897c-0.051-0.055-0.104-0.109-0.155-0.163
		c-0.147-0.153-0.3-0.303-0.457-0.446C14.949,0.988,12.588,0,10,0C7.39,0,5.012,1.006,3.229,2.649
		C2.814,3.032,2.433,3.45,2.086,3.897C0.78,5.587,0,7.704,0,10c0,5.516,4.486,10,10,10c3.879,0,7.247-2.221,8.904-5.456
		c0.354-0.692,0.631-1.43,0.816-2.203c0.047-0.194,0.088-0.393,0.123-0.593C19.943,11.18,20,10.598,20,10
		C20,9.966,19.998,9.932,19.998,9.897z M18.115,5.9l0.059-0.065c0.076,0.148,0.146,0.298,0.215,0.45l-0.095-0.004l-0.179,0.025V5.9z
		 M16.67,4.155l0.002-0.447c0.157,0.167,0.309,0.338,0.453,0.516l-0.18,0.268l-0.631-0.006l-0.039-0.131L16.67,4.155z M18.753,7.461
		h-0.731l-0.445-0.332l-0.471,0.045V7.46h-0.147l-0.16-0.114L15.986,7.14V6.614l-1.029,0.08l-0.318,0.171h-0.41l-0.201-0.02
		l-0.495,0.276V7.64l-1.015,0.732l0.084,0.312h0.205l-0.054,0.298l-0.146,0.053L12.6,9.813l0.877,1h0.383l0.021-0.062h0.688
		l0.197-0.183h0.389l0.215,0.213l0.579,0.061l-0.076,0.771l0.644,1.137l-0.339,0.648l0.023,0.305l0.267,0.268v0.732l0.352,0.472
		v0.609h0.303c-1.686,2.069-4.249,3.394-7.118,3.394c-5.061,0-9.177-4.117-9.177-9.178c0-1.274,0.262-2.488,0.732-3.591V6.122
		l0.329-0.398C1.998,5.509,2.12,5.299,2.25,5.095l0.015,0.166l-0.38,0.463C1.766,5.947,1.656,6.175,1.556,6.409v0.522l0.381,0.183
		V7.84l0.366,0.624L2.6,8.51l0.039-0.214L2.288,7.755L2.219,7.229h0.206L2.511,7.77l0.507,0.74L2.887,8.749L3.21,9.242L4.011,9.44
		V9.311l0.32,0.045l-0.03,0.229l0.251,0.046l0.389,0.106l0.549,0.625l0.701,0.053l0.069,0.571l-0.48,0.337l-0.023,0.511
		l-0.068,0.312l0.694,0.869l0.053,0.297c0,0,0.251,0.068,0.283,0.068c0.03,0,0.564,0.405,0.564,0.405v1.569l0.19,0.055l-0.13,0.725
		l0.32,0.428l-0.059,0.719l0.423,0.744L8.572,18.5l0.546,0.01l0.054-0.176L8.77,17.996l0.023-0.168l0.072-0.205l0.015-0.21
		l-0.271-0.009l-0.137-0.172l0.226-0.217l0.03-0.164l-0.252-0.072l0.015-0.151l0.358-0.054l0.545-0.262l0.183-0.336l0.572-0.732
		l-0.13-0.572l0.176-0.305l0.526,0.016l0.354-0.281l0.114-1.104l0.394-0.499l0.067-0.321l-0.358-0.113l-0.235-0.39l-0.809-0.008
		l-0.641-0.244l-0.03-0.457l-0.214-0.374l-0.58-0.008L8.45,10.058L8.152,9.913l-0.015,0.16l-0.542,0.032L7.397,9.829L6.833,9.714
		l-0.465,0.537l-0.732-0.124L5.582,9.303L5.048,9.211l0.214-0.405L5.201,8.574L4.499,9.043L4.057,8.99L3.899,8.645l0.096-0.356
		L4.239,7.84L4.8,7.556h1.083L5.88,7.886l0.389,0.181L6.238,7.503l0.281-0.282l0.566-0.372l0.039-0.262L7.688,6l0.6-0.332
		L8.234,5.624L8.64,5.242l0.149,0.04l0.068,0.085l0.154-0.171L9.05,5.178L8.881,5.154L8.709,5.097V4.933L8.8,4.858H9l0.092,0.04
		l0.08,0.161l0.097-0.015V5.03l0.028,0.01l0.281-0.043l0.04-0.138L9.778,4.9v0.149L9.629,5.151l0,0l0.022,0.163l0.51,0.157
		c0,0,0,0.002,0.001,0.006l0.117-0.01l0.008-0.221L9.884,5.063L9.861,4.957l0.335-0.114l0.015-0.321L9.86,4.308L9.837,3.767
		l-0.48,0.236H9.182l0.046-0.412L8.574,3.437L8.303,3.642v0.624L7.816,4.419L7.622,4.826L7.41,4.86V4.34L6.953,4.277L6.724,4.128
		L6.632,3.791L7.45,3.312l0.4-0.122l0.041,0.269l0.223-0.012l0.018-0.135l0.233-0.033l0.004-0.047L8.268,3.19L8.245,3.047
		l0.287-0.024l0.173-0.18L8.714,2.83l0.002,0.001l0.053-0.054L9.371,2.7l0.267,0.226L8.939,3.299l0.889,0.209l0.115-0.297h0.389
		l0.137-0.259l-0.274-0.069V2.555L9.333,2.174L8.738,2.242L8.403,2.418l0.023,0.427L8.075,2.792L8.021,2.555L8.356,2.25l-0.61-0.03
		L7.571,2.273L7.495,2.479l0.229,0.039L7.678,2.746L7.29,2.769L7.229,2.921L6.665,2.937c0,0-0.016-0.32-0.039-0.32
		c-0.022,0,0.442-0.008,0.442-0.008l0.336-0.328L7.221,2.189L6.978,2.426L6.573,2.403L6.329,2.067H5.81L5.269,2.471h0.496
		L5.81,2.617l-0.129,0.12L6.23,2.751L6.314,2.95L5.696,2.927l-0.03-0.152L5.277,2.69L5.071,2.576L4.609,2.58
		C6.124,1.476,7.986,0.823,10,0.823c2.32,0,4.441,0.868,6.059,2.293L15.95,3.311l-0.425,0.166L15.35,3.67l0.039,0.226l0.219,0.03
		l0.133,0.329l0.377-0.152l0.062,0.44h-0.115l-0.31-0.045l-0.342,0.058L15.08,5.024l-0.475,0.075l-0.068,0.406l0.199,0.047
		L14.68,5.813l-0.472-0.094l-0.433,0.094l-0.092,0.241l0.074,0.505l0.256,0.119l0.424-0.002l0.289-0.026l0.088-0.229l0.449-0.584
		l0.295,0.061l0.291-0.263l0.055,0.206l0.716,0.483l-0.087,0.118L16.21,6.424L16.335,6.6l0.198,0.043l0.232-0.097L16.76,6.265
		l0.104-0.052l-0.085-0.088L16.305,5.86l-0.127-0.354h0.397l0.127,0.125l0.342,0.295l0.015,0.356l0.354,0.377l0.132-0.518
		l0.246-0.134l0.046,0.423l0.24,0.263l0.478-0.008c0.094,0.238,0.176,0.48,0.25,0.728L18.753,7.461z M18.9,7.924L18.93,7.89
		c0.012,0.052,0.024,0.104,0.036,0.156L18.9,7.924z"/>
	<path fill="#FFFFFF" d="M1.555,6.122v0.287c0.1-0.234,0.21-0.461,0.329-0.685L1.555,6.122z"/>
</g>
</svg>
