<?xml version="1.0" encoding="utf-8"?>
<!-- Generator: Adobe Illustrator 15.1.0, SVG Export Plug-In . SVG Version: 6.00 Build 0)  -->
<!DOCTYPE svg PUBLIC "-//W3C//DTD SVG 1.1//EN" "http://www.w3.org/Graphics/SVG/1.1/DTD/svg11.dtd">
<svg version="1.1" id="Layer_1" xmlns="http://www.w3.org/2000/svg" xmlns:xlink="http://www.w3.org/1999/xlink" x="0px" y="0px"
	 width="20px" height="20px" viewBox="0 0 20 20" enable-background="new 0 0 20 20" xml:space="preserve">
<path fill="#FFFFFF" d="M2.538-0.024H1.708H0v20h14.188h0.854H20v-20H2.538z M0.5,19.476v-19h0.996L2.127,1.5l0.884,0.556
	L4.055,3.76l1.441,1.023l0.86,1.307l0.35,1.028l0.153,1.201l0.531,0.164l0.996,1.023l1.306,0.101l0.249-1.614l0.626-0.656
	l0.78,0.597l1.025,0.32l0.606-0.799l0.589,0.692l-1.335,0.283l-0.637-0.308l-1,0.758l0.99,1.571l-0.032,0.527l0.603,0.448
	l0.444,1.839l-1.058-0.97l-0.75-0.206l-0.201-0.409l0.066-1.021l-0.158-0.391l-0.756,0.194l0.129,1.042l-0.163,1.182l0.427,0.29
	l0.383,1.11l-0.125,0.929l0.379,0.697l0.013-0.006l1.231,1.412l0.681,0.474l1.03,0.028l0.218-0.131l0.255,0.192l0.41,0.879
	l-0.192,0.913H0.5z M19.5,19.476h-4.324l0.222-1.003l-0.555-1.19l-0.849-0.695l-0.464,0.279l-0.593-0.017l-0.387-0.26l-1.07-1.227
	l0.126-0.062l0.953-0.166l0.779,0.769l1.148,0.479l1.23,1.324l0.598,0.189l0.483-0.621l0.483,0.189l1.359-0.005l0.076-0.894
	l-0.19-0.774l-0.862-0.225l-0.608-0.934l0.273-0.816l-0.422-0.29l-0.21-0.869L16.33,12.51V9.294l-0.163-1.483l-1.119,0.07
	l0.88-0.928l0.139-0.999l-0.684-0.018l-0.005-1.774L13.688,4.08l-0.493,0.378l-0.632-0.206L12.315,3.43l-0.407-0.509L11.29,1.473
	L10.535,1.78l-0.45,0.84L8.956,2.939L8.51,2.572L8.118,1.774L7.645,1.391L5.831,1.366L5.447,1.733L3.874,1.756L3.788,1.668
	L2.717,1.026l-0.34-0.551H19.5V19.476z"/>
</svg>
