<?xml version="1.0" encoding="utf-8"?>
<!-- Generator: Adobe Illustrator 15.1.0, SVG Export Plug-In . SVG Version: 6.00 Build 0)  -->
<!DOCTYPE svg PUBLIC "-//W3C//DTD SVG 1.1//EN" "http://www.w3.org/Graphics/SVG/1.1/DTD/svg11.dtd">
<svg version="1.1" id="Layer_1" xmlns="http://www.w3.org/2000/svg" xmlns:xlink="http://www.w3.org/1999/xlink" x="0px" y="0px"
	 width="20px" height="20px" viewBox="0 0 20 20" enable-background="new 0 0 20 20" xml:space="preserve">
<path fill="#FFFFFF" d="M19.795,0h-6.924h-1.51H4.91H3.841H0v4.125v2.908V20h0.229h0.001h0.628h0.001h5.746H6.604h2.828h0.001h3.534
	h0.001h2.91h-0.001H20v-3.841v-1.07V9.435V6.605V0.856V0H19.795z M11.818,7.978L7.836,11.96L4.374,8.498l3.981-3.982L11.818,7.978z
	 M8.891,3.98l3.226-3.227l3.462,3.462l-3.225,3.226L8.891,3.98z M12.35,8.508l2.873,2.875l-3.981,3.982L8.367,12.49L12.35,8.508z
	 M12.883,7.974l3.227-3.226l2.875,2.874l-3.227,3.226L12.883,7.974z M12.923,0.5h6.372l-3.186,3.187L12.923,0.5z M11.311,0.5
	L8.359,3.45L5.41,0.5H11.311z M0.5,0.5h3.841l3.484,3.484L3.843,7.967L0.5,4.625V0.5z M6.382,13.415L0.5,19.297V7.533L6.382,13.415z
	 M1.358,19.5l5.554-5.555l2.874,2.873L7.104,19.5H1.358z M9.933,19.5l1.268-1.268l1.267,1.268H9.933z M19.5,19.5h-4.123
	l-2.723-2.721l3.982-3.982l2.863,2.862V19.5z M19.5,14.589l-2.327-2.327L19.5,9.935V14.589z M19.5,7.075l-2.859-2.858l2.859-2.86
	V7.075z"/>
</svg>
