<?xml version="1.0" encoding="utf-8"?>
<!-- Generator: Adobe Illustrator 15.1.0, SVG Export Plug-In . SVG Version: 6.00 Build 0)  -->
<!DOCTYPE svg PUBLIC "-//W3C//DTD SVG 1.1//EN" "http://www.w3.org/Graphics/SVG/1.1/DTD/svg11.dtd">
<svg version="1.1" id="Layer_1" xmlns="http://www.w3.org/2000/svg" xmlns:xlink="http://www.w3.org/1999/xlink" x="0px" y="0px"
	 width="20px" height="20px" viewBox="0 0 20 20" enable-background="new 0 0 20 20" xml:space="preserve">
<g>
	<path fill="#FFFFFF" d="M10,1.405C9.613,1.403,9.298,1.088,9.298,0.703C9.298,0.311,9.614-0.004,10,0
		c0.391-0.004,0.705,0.311,0.702,0.703C10.705,1.088,10.391,1.403,10,1.405L10,1.405z"/>
	<path fill="#FFFFFF" d="M10,1.405c0.387-0.001,0.702-0.316,0.702-0.702C10.702,0.311,10.387-0.004,10,0
		C9.61-0.004,9.295,0.311,9.298,0.703C9.295,1.088,9.61,1.403,10,1.405L10,1.405z"/>
	<path fill="#FFFFFF" d="M13.726,15.613c0.976-0.161,1.946-1.179,1.944-2.422V4.122c0.002-1.278-1.075-2.454-2.535-2.452h-3.124
		H6.875C5.407,1.668,4.33,2.844,4.331,4.122v9.069c-0.001,1.243,0.971,2.261,1.944,2.422L3.354,20h1.69l2.086-3.074h2.871h2.87
		L14.967,20h1.68L13.726,15.613z M8.352,2.606c0-0.228,0.193-0.415,0.417-0.418H10h1.232c0.223,0.003,0.417,0.19,0.417,0.418v0.711
		c0,0.227-0.183,0.418-0.417,0.417h-1.231H8.769C8.535,3.736,8.352,3.544,8.352,3.318V2.606L8.352,2.606z M6.814,14.29
		c-0.611-0.005-1.11-0.503-1.109-1.119c-0.001-0.614,0.497-1.112,1.109-1.109c0.618-0.003,1.117,0.494,1.119,1.109
		C7.932,13.787,7.433,14.285,6.814,14.29z M6.957,8.397C6.256,8.393,5.683,7.913,5.685,7.125V5.497
		c0.005-0.679,0.443-1.271,1.272-1.272h3.044h3.043c0.829,0.001,1.269,0.593,1.273,1.272v1.628c0.001,0.788-0.571,1.268-1.273,1.272
		h-3.043H6.957z M12.046,13.171c-0.001-0.614,0.497-1.112,1.109-1.109c0.618-0.003,1.116,0.495,1.121,1.109
		c-0.005,0.616-0.503,1.114-1.121,1.119C12.543,14.285,12.045,13.787,12.046,13.171z"/>
</g>
</svg>
