<?xml version="1.0" encoding="utf-8"?>
<!-- Generator: Adobe Illustrator 15.1.0, SVG Export Plug-In . SVG Version: 6.00 Build 0)  -->
<!DOCTYPE svg PUBLIC "-//W3C//DTD SVG 1.1//EN" "http://www.w3.org/Graphics/SVG/1.1/DTD/svg11.dtd">
<svg version="1.1" id="Layer_1" xmlns="http://www.w3.org/2000/svg" xmlns:xlink="http://www.w3.org/1999/xlink" x="0px" y="0px"
	 width="950px" height="120px" viewBox="0 0 950 120" enable-background="new 0 0 950 120" xml:space="preserve">
<g>
	<g>
		<path fill="#FFFFFF" d="M159.708,79.311c1.954-1.388,4.122-2.08,6.513-2.08c3.012,0,7.027,1.567,12.068,4.695v2.311h7.834V42.111
			c-0.566-0.227-1.147-0.448-1.759-0.657c-4.135-1.411-9.359-2.116-15.653-2.116c-16.234,0-26.784,5.127-31.637,15.386l16.797,3.023
			c3.321-3.406,7.328-5.107,12.006-5.107c3.781,0,6.793,1.065,9.04,3.192c2.253,2.125,3.372,4.848,3.372,8.161v3.968
			c-5.669-2.193-10.681-3.293-15.041-3.293c-7.824,0-14.212,2.104-19.163,6.314c-4.293,3.66-6.718,8.074-7.281,13.254h20.034
			C157.081,82.141,158.034,80.488,159.708,79.311"/>
		<path fill="#FFFFFF" d="M199.138,84.236V67.288c0-6-0.418-10.339-1.25-13.002s-2.263-5.114-4.281-7.354
			c-1.409-1.559-3.337-2.912-5.771-4.068v41.372H199.138L199.138,84.236z"/>
		<polygon fill="#FFFFFF" points="209.663,90.996 199.138,90.996 199.138,85.943 187.836,85.943 187.836,105.98 209.663,105.98 		
			"/>
		<path fill="#FFFFFF" d="M178.29,85.943v1.285c-4.854,4.524-9.225,6.793-13.09,6.793c-2.469,0-4.493-0.854-6.072-2.561
			c-1.44-1.559-2.212-3.396-2.334-5.521h-20.1c-0.006,0.229-0.019,0.453-0.019,0.684c0,6.188,2.35,11.115,7.037,14.779
			c4.7,3.676,10.291,5.514,16.769,5.514c6.253,0,12.19-2.027,17.809-6.082v5.146h7.834V85.943H178.29z"/>
		<rect x="262.274" y="100.842" fill="#FFFFFF" width="30.696" height="5.137"/>
		<path fill="#FFFFFF" d="M283.117,70.751v-5.679c0-10.184-2.438-17.265-7.306-21.258v26.937H283.117z"/>
		<path fill="#FFFFFF" d="M244.196,61.645c4.041-2.822,8.002-4.229,11.872-4.229c2.203,0,3.787,0.65,4.753,1.949
			c0.969,1.3,1.453,3.718,1.453,7.26v4.131h11.821v-28.16c-2.888-1.764-6.469-2.652-10.743-2.652
			c-6.472,0-12.859,2.352-19.156,7.053v-6.045h-30.833v14.981h9.984v14.819h20.849V61.645L244.196,61.645z"/>
		<rect x="262.274" y="72.457" fill="#FFFFFF" width="11.821" height="26.678"/>
		<polygon fill="#FFFFFF" points="223.347,90.996 213.363,90.996 213.363,105.98 254.243,105.98 254.243,90.996 244.199,90.996 
			244.199,72.457 223.347,72.457 		"/>
		<polygon fill="#FFFFFF" points="275.811,99.135 292.97,99.135 292.97,90.998 283.117,90.998 283.117,72.457 275.811,72.457 		"/>
		<polygon fill="#FFFFFF" points="121.504,0.394 90.4,0.394 90.4,15.375 100.659,15.375 100.659,22.122 121.504,22.122 		"/>
		<polygon fill="#FFFFFF" points="100.657,23.829 100.657,90.996 90.398,90.996 90.398,105.98 112.831,105.98 112.831,23.829 		"/>
		<polygon fill="#FFFFFF" points="114.543,23.829 114.543,105.98 130.88,105.98 130.88,90.996 121.504,90.996 121.504,23.829 		"/>
		<path fill="#FFFFFF" d="M57.757,21.455c1.664,2.396,2.499,5.297,2.499,8.698c0,3.463-0.895,6.436-2.668,8.922h27.211
			c0.814-2.796,1.225-5.769,1.225-8.922c0-9.088-3.138-16.321-9.408-21.699C70.73,3.42,62.546,0.742,52.069,0.425v16.608
			C54.209,17.605,56.106,19.078,57.757,21.455"/>
		<path fill="#FFFFFF" d="M36.847,16.183h4.588c3.803,0,6.768,0.171,8.921,0.507V0.401c-0.142,0-0.281-0.007-0.425-0.007H0.485
			v15.789h11.94v22.892h24.422V16.183z"/>
		<polygon fill="#FFFFFF" points="12.425,40.779 12.425,90.188 0.485,90.188 0.485,105.98 27.05,105.98 27.05,40.779 		"/>
		<path fill="#FFFFFF" d="M40.491,44.334h-3.646v-3.553h-8.083v65.199h21.171V90.188H36.846V59.919h8.97
			c6.653,0,12.2-0.414,16.629-1.243c4.433-0.829,8.367-2.37,11.806-4.636c3.442-2.262,6.263-5.508,8.464-9.742
			c0.593-1.135,1.101-2.309,1.533-3.517H56.131C53.514,43.151,48.303,44.334,40.491,44.334"/>
		<path fill="#5DB9E7" d="M148.133,24.346h2.115c3.37,0,5.642-1.053,5.642-4.682c0-4.292-3.681-4.837-4.741-4.837h-3.016V24.346z
			 M148.133,11.004h2.038c2.154,0,4.625-0.626,4.625-3.784c0-3.241-2.938-3.475-4.197-3.475h-2.466V11.004L148.133,11.004z
			 M140.056,28.171v-3.825h2.978V3.822h-2.978V0h10.074c6.663,0,9.76,2.03,9.76,7.063c0,2.769-1.569,4.603-4.034,5.696
			c3.288,1.288,5.125,3.434,5.125,7.062c0,4.685-2.815,7.375-7.321,8.153c-1.84,0.314-4.979,0.197-6.197,0.197H140.056z"/>
		<path fill="#5DB9E7" d="M173.917,19.821c-2.666,0-5.053,0.429-5.053,2.888c0,1.717,1.175,2.495,2.781,2.495
			c3.097,0,4.862-2.262,4.781-5.383H173.917z M176.508,25.518h-0.082c-1.609,2.457-3.293,3.202-6.075,3.202
			c-3.409,0-6.384-1.955-6.384-5.854c0-6.011,6.03-6.165,10.615-6.165h1.843v-1.407c0-2.146-1.609-2.811-3.525-2.811
			c-2.041,0-3.294,0.862-3.45,2.966h-4.9c0.315-5.227,4.625-6.086,8.935-6.086c5.915,0,7.837,2.457,7.837,7.999v7.299h2.35v3.509
			h-7.165L176.508,25.518L176.508,25.518z"/>
		<polygon fill="#5DB9E7" points="185.539,36.288 185.539,32.583 190.104,32.583 192.335,27.817 186.227,13.851 183.905,13.851 
			183.905,10.144 193.239,10.144 193.239,13.851 190.808,13.851 194.648,22.748 194.726,22.748 198.995,13.851 196.53,13.851 
			196.53,10.144 205.382,10.144 205.382,13.851 203.382,13.851 192.823,36.348 		"/>
		<path fill="#5DB9E7" d="M221.447,15.022l-3.172-9.521h-0.078l-3.25,9.521H221.447z M204.835,28.171v-3.825h2.312L214.2,3.824
			h-3.094V0h14.615v3.824h-3.056l6.856,20.525h2.152v3.822H221.25v-3.822h3.097l-1.916-5.501h-8.583l-1.916,5.501h3.05v3.822
			H204.835z"/>
		<path fill="#5DB9E7" d="M233.99,24.662h2.547V13.423h-2.547V9.914h7.406v3.547h0.078c1.093-2.34,2.94-4.096,5.64-4.096
			c0.744,0,1.531,0.078,2.237,0.234v4.251c-0.744-0.192-1.571-0.192-2.355-0.192c-3.447,0-5.054,2.535-5.247,5.695v5.308h3.131v3.51
			h-10.89V24.662L233.99,24.662z"/>
		<path fill="#5DB9E7" d="M265.377,17.441c0-2.026-2.313-3.744-5.054-3.942c-2.393,0-4.587,1.522-5.093,3.942H265.377z
			 M255.23,20.445c0.274,3.044,2.7,4.37,5.481,4.37c2.825,0,3.959-1.713,4.153-1.949h4.508c-0.353,1.795-2.825,5.695-9.05,5.695
			c-5.564,0-9.755-3.746-9.755-9.402c0-5.66,4.191-9.403,9.755-9.403c6.225,0,9.56,4.526,9.56,10.689H255.23z"/>
		<path fill="#5DB9E7" d="M282.423,19.823c-2.668,0-5.053,0.428-5.053,2.888c0,1.715,1.175,2.494,2.782,2.494
			c3.097,0,4.855-2.259,4.78-5.381L282.423,19.823L282.423,19.823z M285.007,25.52h-0.075c-1.609,2.457-3.294,3.2-6.075,3.2
			c-3.409,0-6.387-1.952-6.387-5.853c0-6.012,6.034-6.164,10.619-6.164h1.843v-1.408c0-2.146-1.609-2.809-3.528-2.809
			c-2.04,0-3.291,0.861-3.45,2.965h-4.894c0.309-5.226,4.622-6.086,8.931-6.086c5.916,0,7.834,2.457,7.834,7.998v7.297h2.353v3.51
			h-7.171V25.52L285.007,25.52z"/>
		<rect x="-2.254" fill="none" width="302.389" height="114.721"/>
	</g>
	<path fill="#A8AAAD" d="M318.336,130.055"/>
</g>
<g>
	<path fill="#FFFFFF" d="M309.805,62.521V56.36h4.201v6.162H309.805L309.805,62.521z M314.006,106.904h-4.201V70.502h4.201V106.904z
		"/>
	<path fill="#FFFFFF" d="M325.415,106.904V70.502h4.2v5.74c3.92-4.061,7.141-6.441,12.461-6.441c7.561,0,10.781,4.342,10.781,12.252
		v24.854h-4.201V82.473c0-6.021-1.82-9.311-7.42-9.311c-4.48,0-7.001,2.73-11.622,6.93v26.812H325.415z"/>
	<path fill="#FFFFFF" d="M364.754,70.502V58.6h4.201v11.902h7.979v3.359h-7.979v26.673c0,2.45,1.12,3.711,3.71,3.711
		c1.4,0,2.94-0.351,4.271-0.771v3.5c-1.399,0.211-2.869,0.631-4.271,0.631c-5.95,0-7.911-1.961-7.911-6.371V73.861h-5.46v-3.359
		H364.754z"/>
	<path fill="#FFFFFF" d="M384.774,88.844c0,8.262,3.43,15.401,11.69,15.401c4.69,0,7.001-1.61,10.645-7.351l3.431,1.816
		c-3.92,6.438-7.491,8.895-14.421,8.895c-9.521,0-15.542-6.092-15.542-18.902c0-11.271,5.74-18.902,14.98-18.902
		c9.871,0,14.562,7.771,14.562,19.043H384.774z M405.917,85.482c-0.841-7.49-4.131-12.25-10.501-12.32
		c-7.421-0.07-10.571,7.49-10.641,12.32H405.917z"/>
	<path fill="#FFFFFF" d="M418.515,106.904V70.502h4.2v6.93h0.144c1.96-4.479,5.881-7.631,10.501-7.631h1.891v4.061h-1.891
		c-4.62,0-10.645,5.465-10.645,12.466v20.582h-4.2V106.904z"/>
	<path fill="#FFFFFF" d="M461.986,106.904l-0.562-4.409c-4.34,3.43-7.631,5.11-13.229,5.11c-5.671,0-10.015-3.5-10.015-9.521
		c0-9.939,8.121-11.761,23.312-15.121v-2.521c0-4.83-2.104-7.276-8.331-7.276c-4.341,0-7.911,2.38-10.571,6.58l-2.8-1.683
		c3.15-5.881,7.631-8.263,13.511-8.263c8.266,0,12.186,3.361,12.186,11.412v19.042c0,1.82,0.14,4.2,0.561,6.65H461.986
		L461.986,106.904z M461.286,86.323c-16.662,3.641-18.902,7.069-18.902,11.69c0,3.987,2.73,6.229,6.511,6.229
		c3.925,0,8.755-2.312,12.396-6.021L461.286,86.323L461.286,86.323z"/>
	<path fill="#FFFFFF" d="M499.017,80.723c-1.891-4.201-4.617-7.561-9.447-7.561c-6.861,0-11.481,4.27-11.481,15.541
		c0,9.312,4.2,15.542,11.481,15.542c5.181,0,7.979-2.87,10.921-7.562l3.356,1.606c-3.08,5.185-7.351,9.312-14.277,9.312
		c-10.226,0-15.686-7.912-15.686-18.9c0-12.531,6.301-18.902,15.686-18.902c6.856,0,11.131,3.854,13.301,9.871L499.017,80.723z"/>
	<path fill="#FFFFFF" d="M512.523,70.502V58.6h4.197v11.902h7.98v3.359h-7.98v26.673c0,2.45,1.12,3.711,3.71,3.711
		c1.4,0,2.94-0.351,4.271-0.771v3.5c-1.4,0.211-2.87,0.631-4.271,0.631c-5.946,0-7.907-1.961-7.907-6.371V73.861h-5.46v-3.359
		H512.523z"/>
	<path fill="#FFFFFF" d="M531.494,62.521V56.36h4.2v6.162H531.494L531.494,62.521z M535.694,106.904h-4.2V70.502h4.2V106.904z"/>
	<path fill="#FFFFFF" d="M542.343,70.502h4.48l9.938,29.963h0.145l10.081-29.963h4.479l-12.531,36.402h-4.131L542.343,70.502z"/>
	<path fill="#FFFFFF" d="M579.162,88.844c0,8.262,3.431,15.401,11.688,15.401c4.69,0,7.001-1.61,10.645-7.351l3.431,1.816
		c-3.921,6.438-7.491,8.895-14.422,8.895c-9.521,0-15.541-6.092-15.541-18.902c0-11.271,5.74-18.902,14.981-18.902
		c9.871,0,14.562,7.771,14.562,19.043H579.162z M600.305,85.482c-0.841-7.49-4.131-12.25-10.502-12.32
		c-7.42-0.07-10.566,7.49-10.641,12.32H600.305z"/>
</g>
<g>
	<path fill="#FFFFFF" d="M625.034,67.475v4.621h0.14c1.541-2.381,5.461-5.32,9.381-5.32c6.861,0,9.661,5.32,9.661,15.121v9.24
		c0,9.801-2.8,15.122-9.661,15.122c-2.38,0-4.62-1.12-8.816-4.2V119h-8.821V67.475H625.034z M625.734,96.947
		c1.75,1.891,3.356,2.729,5.316,2.729c2.381,0,4.341-1.54,4.341-9.101v-8.121c0-7.562-1.96-9.103-4.341-9.103
		c-1.96,0-3.566,0.84-5.316,2.729V96.947z"/>
	<path fill="#FFFFFF" d="M651.913,105.559V67.475h8.611v5.041h0.14c2.03-3.781,4.69-5.74,9.102-5.74v9.521
		c-1.471-0.42-3.146-0.979-4.688-0.979c-2.87,0-4.34,2.172-4.34,4.201v26.043h-8.822L651.913,105.559L651.913,105.559z"/>
	<path fill="#FFFFFF" d="M674.521,81.195c0-10.08,5.182-14.422,14.003-14.422c8.817,0,14.001,4.342,14.001,14.422v10.642
		c0,10.081-5.184,14.422-14.001,14.422c-8.821,0-14.003-4.341-14.003-14.422V81.195z M683.344,94.077
		c0,2.94,2.104,4.479,5.185,4.479s5.181-1.539,5.181-4.479V78.956c0-2.94-2.101-4.479-5.181-4.479s-5.185,1.539-5.185,4.479V94.077z
		"/>
	<path fill="#FFFFFF" d="M720.164,67.475v41.164c0,7.281-4.9,10.361-10.781,10.361c-1.12,0-2.24-0.07-3.221-0.21v-7.771
		c3.781,0,5.181-1.121,5.181-3.502V67.475H720.164z M711.343,60.895v-7.979h8.821v7.979H711.343z"/>
	<path fill="#FFFFFF" d="M737.804,88.617v5.04c0,3.78,2.24,5.461,5.185,5.461c3.71,0,5.181-2.38,5.181-5.321h8.82
		c-0.42,7.842-5.11,12.462-14.001,12.462c-8.401,0-14.002-5.181-14.002-13.512V80.286c0-8.331,5.601-13.513,14.002-13.513
		c8.188,0,14.001,5.182,14.001,12.953v8.891H737.804z M748.165,81.477v-2.101c0-3.36-1.61-5.461-5.181-5.461
		c-3.571,0-5.185,2.101-5.185,5.461v2.101H748.165z"/>
	<path fill="#FFFFFF" d="M783.165,80.636v-1.68c0-2.94-2.101-4.479-5.181-4.479s-5.185,1.539-5.185,4.479v15.121
		c0,2.94,2.104,4.479,5.185,4.479c3.078,0,5.181-1.539,5.181-4.479v-2.38h8.82v0.14c0,10.081-5.185,14.422-14.001,14.422
		c-8.821,0-14.002-4.341-14.002-14.422V81.195c0-10.08,5.181-14.422,14.002-14.422c8.606,0,13.791,4.201,13.932,13.858
		L783.165,80.636L783.165,80.636z"/>
	<path fill="#FFFFFF" d="M795.902,76.295v-7.141h3.5v-10.36h8.817v10.36h5.671v7.141h-5.671v19.463c0,1.891,1.61,2.801,3.99,2.801
		c0.63,0,1.19,0,1.751-0.066v7.42c-1.681,0.277-3.361,0.352-5.041,0.352c-5.74,0-9.521-2.102-9.521-7.562V76.295H795.902z"/>
</g>
<g>
	<path fill="#FFFFFF" d="M879.42,79.605c0.63-8.475,7.07-11.832,14.143-11.832c9.384,0,12.95,4.762,12.95,11.553v24.152
		c0,1.049,0.21,2.1,0.49,3.08h-8.821c-0.21-0.98-0.35-2.17-0.63-3.711c-2.59,2.59-6.091,4.407-10.501,4.407
		c-5.316,0-8.751-2.938-8.751-9.103c0-8.819,8.401-12.604,19.396-15.895v-2.8c0-3.29-2.029-4.551-4.553-4.551
		c-2.657,0-4.897,1.96-4.897,4.69h-8.822L879.42,79.605L879.42,79.605z M897.691,87.938c-5.25,1.819-10.57,4.764-10.57,8.75
		c0,2.521,1.54,3.99,3.92,3.99c2.66,0,4.551-1.4,6.65-3.5V87.938z"/>
	<path fill="#FFFFFF" d="M923.381,68.475v4.621h0.141c1.539-2.381,5.464-5.32,9.385-5.32c6.856,0,9.656,5.32,9.656,15.121v9.24
		c0,9.801-2.8,15.122-9.656,15.122c-2.381,0-4.621-1.12-8.821-4.2V120h-8.821V68.475H923.381z M924.081,97.947
		c1.75,1.891,3.36,2.729,5.32,2.729c2.38,0,4.341-1.54,4.341-9.101v-8.121c0-7.562-1.961-9.103-4.341-9.103
		c-1.96,0-3.57,0.84-5.32,2.729V97.947z"/>
</g>
<g id="Layer_2">
</g>
<g>
	<path fill="#FFFFFF" d="M829.661,68.475h8.541v4.341c2.87-2.591,5.741-5.041,9.451-5.041c3.29,0,5.671,2.24,6.721,5.74
		c2.73-3.01,5.53-5.74,9.381-5.74c5.32,0,8.051,3.221,8.051,10.081v28.703h-8.821V77.575c0-2.52-0.909-3.22-2.31-3.22
		c-1.681,0-4.411,1.96-5.53,3.43v28.773h-8.821V77.575c0-2.52-0.98-3.22-2.38-3.22c-1.891,0-4.411,1.96-5.461,3.43v28.773h-8.821
		V68.475z"/>
</g>
</svg>
