<?xml version="1.0" encoding="utf-8"?>
<!-- Generator: Adobe Illustrator 15.1.0, SVG Export Plug-In . SVG Version: 6.00 Build 0)  -->
<!DOCTYPE svg PUBLIC "-//W3C//DTD SVG 1.1//EN" "http://www.w3.org/Graphics/SVG/1.1/DTD/svg11.dtd">
<svg version="1.1" id="Layer_1" xmlns="http://www.w3.org/2000/svg" xmlns:xlink="http://www.w3.org/1999/xlink" x="0px" y="0px"
	 width="130px" height="50px" viewBox="0 0 130 50" enable-background="new 0 0 130 50" xml:space="preserve">
<g>
	<path fill="#8C8C8C" d="M48.192,10.454c-0.768,0-1.39,0.623-1.39,1.39v34.877H11.926c-0.768,0-1.39,0.621-1.39,1.389
		c0,0.77,0.623,1.392,1.39,1.392h36.266c0.768,0,1.39-0.622,1.39-1.392V11.844C49.582,11.076,48.959,10.454,48.192,10.454z"/>
	<path fill="#8C8C8C" d="M45.551,44.08V5.799c0-0.768-0.622-1.39-1.39-1.39s-1.39,0.622-1.39,1.39v36.891H5.882
		c-0.768,0-1.39,0.625-1.39,1.392c0,0.769,0.622,1.392,1.39,1.392h38.279C44.929,45.471,45.551,44.848,45.551,44.08z"/>
	<path fill="#8C8C8C" d="M41.523,40.051V1.771c0-0.768-0.622-1.39-1.39-1.39H1.853c-0.768,0-1.39,0.622-1.39,1.39v38.28
		c0,0.77,0.622,1.391,1.39,1.391h38.281C40.901,41.441,41.523,40.818,41.523,40.051z M38.743,3.161v27.44h-2.685l-5.705-15.216
		c-0.183-0.488-0.624-0.833-1.143-0.893c-0.517-0.059-1.026,0.175-1.316,0.61l-7.027,10.54l-3.844-4.615
		c-0.288-0.346-0.723-0.531-1.175-0.496c-0.449,0.035-0.854,0.285-1.085,0.67L9.122,30.6H3.243V3.161H38.743z M33.089,30.602H12.367
		l3.774-6.29l3.783,4.542c0.28,0.336,0.696,0.513,1.143,0.498c0.438-0.023,0.838-0.252,1.082-0.617l6.554-9.832L33.089,30.602z
		 M3.243,38.661v-5.28h35.5v5.28H3.243z"/>
	<path fill="#8C8C8C" d="M12.933,15.248c2.433,0,4.412-1.979,4.412-4.412s-1.979-4.413-4.412-4.413s-4.412,1.979-4.412,4.413
		C8.521,13.269,10.5,15.248,12.933,15.248z M12.933,9.204c0.899,0,1.632,0.732,1.632,1.632s-0.732,1.632-1.632,1.632
		s-1.632-0.732-1.632-1.632S12.034,9.204,12.933,9.204z"/>
</g>
<g enable-background="new    ">
	<path fill="#8C8C8C" d="M73.896,22.643h-2.398l-3.871-6.732h-0.055c0.076,1.189,0.115,2.037,0.115,2.544v4.188h-1.687v-8.899h2.38
		l3.865,6.665h0.042c-0.062-1.156-0.091-1.974-0.091-2.453v-4.212h1.697v8.899H73.896z"/>
	<path fill="#8C8C8C" d="M82.174,19.228c0,1.108-0.292,1.974-0.877,2.599c-0.584,0.625-1.396,0.937-2.439,0.937
		c-0.653,0-1.229-0.143-1.729-0.429c-0.499-0.286-0.883-0.697-1.149-1.232c-0.268-0.535-0.402-1.16-0.402-1.875
		c0-1.112,0.29-1.976,0.871-2.593c0.58-0.617,1.396-0.925,2.445-0.925c0.653,0,1.229,0.142,1.729,0.426
		c0.5,0.284,0.883,0.692,1.149,1.224C82.04,17.891,82.174,18.514,82.174,19.228z M77.469,19.228c0,0.673,0.11,1.183,0.332,1.528
		c0.221,0.345,0.581,0.517,1.08,0.517c0.495,0,0.852-0.171,1.068-0.514c0.217-0.343,0.324-0.853,0.324-1.531
		c0-0.674-0.108-1.179-0.328-1.516c-0.219-0.337-0.578-0.505-1.077-0.505c-0.495,0-0.853,0.167-1.071,0.502
		S77.469,18.55,77.469,19.228z"/>
	<path fill="#8C8C8C" d="M93.238,16.52c0,0.958-0.299,1.69-0.896,2.197c-0.598,0.507-1.449,0.761-2.554,0.761h-0.81v3.165h-1.888
		v-8.899h2.843c1.08,0,1.899,0.232,2.463,0.697C92.958,14.905,93.238,15.598,93.238,16.52z M88.979,17.932H89.6
		c0.58,0,1.014-0.115,1.303-0.344s0.433-0.563,0.433-1.001c0-0.442-0.121-0.769-0.362-0.98c-0.24-0.211-0.619-0.316-1.135-0.316
		H88.98v2.641H88.979z"/>
	<path fill="#8C8C8C" d="M101.055,22.643h-1.855v-3.975c0-0.982-0.365-1.473-1.096-1.473c-0.521,0-0.896,0.177-1.127,0.53
		s-0.348,0.925-0.348,1.716v3.202h-1.855v-9.471h1.855v1.93c0,0.15-0.014,0.503-0.042,1.059l-0.043,0.548h0.099
		c0.414-0.666,1.07-0.998,1.971-0.998c0.801,0,1.406,0.215,1.82,0.645s0.621,1.047,0.621,1.851V22.643z"/>
	<path fill="#8C8C8C" d="M109.148,19.228c0,1.108-0.291,1.974-0.877,2.599c-0.584,0.625-1.396,0.937-2.439,0.937
		c-0.652,0-1.229-0.143-1.729-0.429s-0.883-0.697-1.15-1.232s-0.402-1.16-0.402-1.875c0-1.112,0.29-1.976,0.871-2.593
		c0.58-0.617,1.396-0.925,2.446-0.925c0.653,0,1.229,0.142,1.729,0.426c0.5,0.284,0.883,0.692,1.149,1.224
		C109.016,17.891,109.148,18.514,109.148,19.228z M104.443,19.228c0,0.673,0.111,1.183,0.332,1.528
		c0.222,0.345,0.582,0.517,1.08,0.517c0.496,0,0.852-0.171,1.068-0.514c0.217-0.343,0.325-0.853,0.325-1.531
		c0-0.674-0.108-1.179-0.328-1.516s-0.579-0.505-1.078-0.505c-0.495,0-0.852,0.167-1.071,0.502
		C104.555,18.044,104.443,18.55,104.443,19.228z"/>
	<path fill="#8C8C8C" d="M113.551,21.285c0.324,0,0.715-0.071,1.17-0.213v1.382c-0.464,0.207-1.031,0.31-1.705,0.31
		c-0.742,0-1.283-0.188-1.623-0.563c-0.338-0.375-0.508-0.938-0.508-1.689v-3.281h-0.889v-0.785l1.021-0.621l0.537-1.436h1.187
		v1.448h1.905v1.394h-1.905v3.281c0,0.264,0.073,0.458,0.222,0.584S113.309,21.285,113.551,21.285z"/>
	<path fill="#8C8C8C" d="M122.279,19.228c0,1.108-0.293,1.974-0.877,2.599s-1.397,0.937-2.44,0.937
		c-0.653,0-1.229-0.143-1.729-0.429c-0.498-0.286-0.883-0.697-1.149-1.232s-0.401-1.16-0.401-1.875c0-1.112,0.289-1.976,0.87-2.593
		c0.58-0.617,1.396-0.925,2.446-0.925c0.652,0,1.229,0.142,1.729,0.426c0.5,0.284,0.883,0.692,1.15,1.224
		C122.146,17.891,122.279,18.514,122.279,19.228z M117.574,19.228c0,0.673,0.109,1.183,0.332,1.528
		c0.221,0.345,0.58,0.517,1.08,0.517c0.494,0,0.851-0.171,1.068-0.514c0.217-0.343,0.324-0.853,0.324-1.531
		c0-0.674-0.109-1.179-0.328-1.516c-0.22-0.337-0.578-0.505-1.078-0.505c-0.494,0-0.852,0.167-1.07,0.502
		S117.574,18.55,117.574,19.228z"/>
</g>
<g enable-background="new    ">
	<path fill="#8C8C8C" d="M71.448,38.227l-0.646-2.119h-3.244l-0.646,2.119H64.88l3.142-8.937h2.307l3.152,8.937H71.448z
		 M70.354,34.523c-0.598-1.918-0.933-3.004-1.008-3.256c-0.074-0.252-0.129-0.449-0.16-0.597c-0.136,0.521-0.519,1.804-1.15,3.853
		H70.354z"/>
	<path fill="#8C8C8C" d="M76.074,38.227l-2.594-6.806h1.941l1.314,3.877c0.146,0.491,0.238,0.956,0.273,1.394h0.036
		c0.021-0.39,0.112-0.854,0.274-1.394l1.309-3.877h1.941l-2.594,6.806H76.074z"/>
	<path fill="#8C8C8C" d="M85.868,38.227l-0.359-0.926H85.46c-0.312,0.395-0.634,0.666-0.965,0.818s-0.763,0.229-1.293,0.229
		c-0.653,0-1.168-0.187-1.543-0.561c-0.376-0.373-0.563-0.904-0.563-1.596c0-0.721,0.254-1.254,0.758-1.598
		c0.506-0.343,1.268-0.531,2.285-0.568l1.182-0.036v-0.298c0-0.69-0.354-1.035-1.059-1.035c-0.545,0-1.184,0.164-1.918,0.492
		l-0.615-1.254c0.783-0.41,1.651-0.615,2.605-0.615c0.913,0,1.613,0.199,2.1,0.598c0.487,0.396,0.73,1.003,0.73,1.814v4.533h-1.296
		V38.227z M85.32,35.072l-0.719,0.023c-0.541,0.018-0.941,0.114-1.205,0.293C83.132,35.566,83,35.839,83,36.204
		c0,0.522,0.3,0.784,0.9,0.784c0.431,0,0.773-0.123,1.031-0.37c0.258-0.248,0.387-0.576,0.387-0.986v-0.56H85.32z"/>
	<path fill="#8C8C8C" d="M88.996,29.661c0-0.604,0.337-0.906,1.011-0.906c0.675,0,1.011,0.302,1.011,0.906
		c0,0.289-0.084,0.513-0.252,0.673c-0.17,0.16-0.422,0.24-0.759,0.24C89.333,30.574,88.996,30.271,88.996,29.661z M90.932,38.227
		h-1.855v-6.806h1.855V38.227z"/>
	<path fill="#8C8C8C" d="M94.736,38.227H92.88v-9.472h1.856V38.227z"/>
	<path fill="#8C8C8C" d="M101.006,38.227l-0.359-0.926h-0.049c-0.312,0.395-0.634,0.666-0.965,0.818s-0.762,0.229-1.293,0.229
		c-0.652,0-1.168-0.187-1.543-0.561c-0.376-0.373-0.562-0.904-0.562-1.596c0-0.721,0.252-1.254,0.758-1.598
		c0.505-0.343,1.267-0.531,2.285-0.568l1.182-0.036v-0.298c0-0.69-0.354-1.035-1.061-1.035c-0.543,0-1.183,0.164-1.916,0.492
		l-0.615-1.254c0.783-0.41,1.65-0.615,2.605-0.615c0.912,0,1.612,0.199,2.1,0.598c0.486,0.396,0.729,1.003,0.729,1.814v4.533h-1.296
		V38.227z M100.458,35.072l-0.72,0.023c-0.539,0.018-0.94,0.114-1.204,0.293c-0.265,0.178-0.396,0.45-0.396,0.815
		c0,0.522,0.299,0.784,0.899,0.784c0.431,0,0.774-0.123,1.032-0.37c0.258-0.248,0.387-0.576,0.387-0.986L100.458,35.072
		L100.458,35.072z"/>
	<path fill="#8C8C8C" d="M107.999,31.293c0.804,0,1.433,0.312,1.888,0.939c0.454,0.627,0.682,1.486,0.682,2.578
		c0,1.123-0.234,1.994-0.703,2.61c-0.469,0.617-1.106,0.927-1.914,0.927c-0.799,0-1.426-0.291-1.881-0.871h-0.129l-0.311,0.748
		h-1.418v-9.471h1.855v2.203c0,0.279-0.023,0.729-0.072,1.345h0.072C106.504,31.63,107.146,31.293,107.999,31.293z M107.402,32.777
		c-0.459,0-0.793,0.142-1.004,0.424c-0.211,0.281-0.32,0.747-0.33,1.396v0.2c0,0.729,0.108,1.254,0.326,1.57
		c0.217,0.315,0.562,0.475,1.031,0.475c0.383,0,0.686-0.176,0.91-0.526c0.225-0.35,0.338-0.86,0.338-1.53
		c0-0.669-0.113-1.171-0.341-1.507C108.105,32.945,107.796,32.777,107.402,32.777z"/>
	<path fill="#8C8C8C" d="M113.958,38.227h-1.856v-9.472h1.856V38.227z"/>
	<path fill="#8C8C8C" d="M118.984,38.348c-1.096,0-1.951-0.303-2.567-0.906c-0.617-0.604-0.926-1.461-0.926-2.568
		c0-1.141,0.284-2.021,0.854-2.645s1.358-0.936,2.365-0.936c0.961,0,1.71,0.273,2.245,0.821c0.536,0.548,0.804,1.305,0.804,2.271
		v0.901h-4.389c0.021,0.526,0.177,0.938,0.469,1.235c0.292,0.295,0.702,0.443,1.229,0.443c0.41,0,0.799-0.043,1.164-0.128
		s0.746-0.222,1.145-0.407v1.437c-0.325,0.163-0.672,0.282-1.041,0.362C119.967,38.307,119.518,38.348,118.984,38.348z
		 M118.725,32.613c-0.395,0-0.703,0.125-0.926,0.375c-0.224,0.248-0.352,0.604-0.384,1.062h2.604
		c-0.009-0.458-0.127-0.812-0.358-1.062S119.117,32.613,118.725,32.613z"/>
</g>
</svg>
