<?xml version="1.0" encoding="utf-8"?>
<!-- Generator: Adobe Illustrator 15.1.0, SVG Export Plug-In . SVG Version: 6.00 Build 0)  -->
<!DOCTYPE svg PUBLIC "-//W3C//DTD SVG 1.1//EN" "http://www.w3.org/Graphics/SVG/1.1/DTD/svg11.dtd">
<svg version="1.1" id="Layer_1" xmlns="http://www.w3.org/2000/svg" xmlns:xlink="http://www.w3.org/1999/xlink" x="0px" y="0px"
	 width="130px" height="50px" viewBox="0 0 130 50" enable-background="new 0 0 130 50" xml:space="preserve">
<g>
	<path fill="#8C8C8C" d="M48.192,10.454c-0.768,0-1.39,0.623-1.39,1.39v34.877H11.926c-0.768,0-1.39,0.621-1.39,1.389
		c0,0.77,0.623,1.392,1.39,1.392h36.266c0.768,0,1.39-0.622,1.39-1.392V11.844C49.582,11.076,48.959,10.454,48.192,10.454z"/>
	<path fill="#8C8C8C" d="M45.551,44.08V5.799c0-0.768-0.622-1.39-1.39-1.39s-1.39,0.622-1.39,1.39v36.891H5.882
		c-0.768,0-1.39,0.625-1.39,1.392c0,0.769,0.622,1.392,1.39,1.392h38.279C44.929,45.471,45.551,44.848,45.551,44.08z"/>
	<path fill="#8C8C8C" d="M41.523,40.051V1.771c0-0.768-0.622-1.39-1.39-1.39H1.853c-0.768,0-1.39,0.622-1.39,1.39v38.28
		c0,0.77,0.622,1.391,1.39,1.391h38.281C40.901,41.441,41.523,40.818,41.523,40.051z M38.743,3.161v27.44h-2.685l-5.705-15.216
		c-0.183-0.488-0.624-0.833-1.143-0.893c-0.517-0.059-1.026,0.175-1.316,0.61l-7.027,10.54l-3.844-4.615
		c-0.288-0.346-0.723-0.531-1.175-0.496c-0.449,0.035-0.854,0.285-1.085,0.67L9.122,30.6H3.243V3.161H38.743z M33.089,30.602H12.367
		l3.774-6.29l3.783,4.542c0.28,0.336,0.696,0.513,1.143,0.498c0.438-0.023,0.838-0.252,1.082-0.617l6.554-9.832L33.089,30.602z
		 M3.243,38.661v-5.28h35.5v5.28H3.243z"/>
	<path fill="#8C8C8C" d="M12.933,15.248c2.433,0,4.412-1.979,4.412-4.412s-1.979-4.413-4.412-4.413s-4.412,1.979-4.412,4.413
		C8.521,13.269,10.5,15.248,12.933,15.248z M12.933,9.204c0.899,0,1.632,0.732,1.632,1.632s-0.732,1.632-1.632,1.632
		s-1.632-0.732-1.632-1.632S12.034,9.204,12.933,9.204z"/>
</g>
<g enable-background="new    ">
	<path fill="#8C8C8C" d="M73.896,22.643h-2.398l-3.871-6.732h-0.055c0.076,1.189,0.115,2.037,0.115,2.544v4.188h-1.687v-8.899h2.38
		l3.865,6.665h0.042c-0.062-1.156-0.091-1.974-0.091-2.453v-4.212h1.697v8.899H73.896z"/>
	<path fill="#8C8C8C" d="M82.174,19.228c0,1.108-0.292,1.974-0.877,2.599c-0.584,0.625-1.396,0.937-2.439,0.937
		c-0.653,0-1.229-0.143-1.729-0.429c-0.499-0.286-0.883-0.697-1.149-1.232c-0.268-0.535-0.402-1.16-0.402-1.875
		c0-1.112,0.29-1.976,0.871-2.593c0.58-0.617,1.396-0.925,2.445-0.925c0.653,0,1.229,0.142,1.729,0.426
		c0.5,0.284,0.883,0.692,1.149,1.224C82.04,17.891,82.174,18.514,82.174,19.228z M77.469,19.228c0,0.673,0.11,1.183,0.332,1.528
		c0.221,0.345,0.581,0.517,1.08,0.517c0.495,0,0.852-0.171,1.068-0.514c0.217-0.343,0.324-0.853,0.324-1.531
		c0-0.674-0.108-1.179-0.328-1.516c-0.219-0.337-0.578-0.505-1.077-0.505c-0.495,0-0.853,0.167-1.071,0.502
		S77.469,18.55,77.469,19.228z"/>
	<path fill="#8C8C8C" d="M93.238,16.52c0,0.958-0.299,1.69-0.896,2.197c-0.598,0.507-1.449,0.761-2.554,0.761h-0.81v3.165h-1.888
		v-8.899h2.843c1.08,0,1.899,0.232,2.463,0.697C92.958,14.905,93.238,15.598,93.238,16.52z M88.979,17.932H89.6
		c0.58,0,1.014-0.115,1.303-0.344s0.433-0.563,0.433-1.001c0-0.442-0.121-0.769-0.362-0.98c-0.24-0.211-0.619-0.316-1.135-0.316
		H88.98v2.641H88.979z"/>
	<path fill="#8C8C8C" d="M98.57,15.71c0.252,0,0.461,0.018,0.628,0.055l-0.142,1.741c-0.149-0.041-0.332-0.061-0.548-0.061
		c-0.593,0-1.054,0.152-1.385,0.457c-0.33,0.305-0.496,0.73-0.496,1.278v3.463h-1.856v-6.805h1.406l0.274,1.145h0.091
		c0.211-0.381,0.496-0.689,0.855-0.922C97.758,15.827,98.148,15.71,98.57,15.71z"/>
	<path fill="#8C8C8C" d="M106.368,19.228c0,1.108-0.292,1.974-0.877,2.599c-0.584,0.625-1.397,0.937-2.44,0.937
		c-0.652,0-1.229-0.143-1.729-0.429c-0.499-0.286-0.883-0.697-1.15-1.232s-0.402-1.16-0.402-1.875c0-1.112,0.291-1.976,0.871-2.593
		c0.58-0.617,1.396-0.925,2.446-0.925c0.653,0,1.229,0.142,1.729,0.426c0.5,0.284,0.883,0.692,1.149,1.224
		C106.234,17.891,106.368,18.514,106.368,19.228z M101.663,19.228c0,0.673,0.11,1.183,0.332,1.528
		c0.221,0.345,0.581,0.517,1.08,0.517c0.495,0,0.851-0.171,1.067-0.514c0.217-0.343,0.325-0.853,0.325-1.531
		c0-0.674-0.108-1.179-0.327-1.516c-0.221-0.337-0.58-0.505-1.078-0.505c-0.496,0-0.853,0.167-1.071,0.502
		C101.771,18.044,101.663,18.55,101.663,19.228z"/>
	<path fill="#8C8C8C" d="M107.354,25.639c-0.475,0-0.881-0.052-1.223-0.154v-1.46c0.283,0.077,0.574,0.116,0.87,0.116
		c0.312,0,0.54-0.087,0.685-0.262c0.145-0.175,0.217-0.433,0.217-0.773v-7.268h1.855v7.542c0,0.722-0.209,1.279-0.627,1.671
		C108.713,25.443,108.121,25.639,107.354,25.639z M107.822,14.079c0-0.604,0.337-0.907,1.011-0.907s1.011,0.303,1.011,0.907
		c0,0.288-0.085,0.512-0.253,0.672c-0.169,0.161-0.421,0.241-0.758,0.241C108.159,14.992,107.822,14.687,107.822,14.079z"/>
	<path fill="#8C8C8C" d="M114.786,22.764c-1.097,0-1.952-0.302-2.568-0.907c-0.616-0.604-0.926-1.461-0.926-2.569
		c0-1.14,0.285-2.021,0.854-2.645c0.57-0.623,1.358-0.934,2.365-0.934c0.961,0,1.711,0.274,2.245,0.822
		c0.536,0.547,0.804,1.304,0.804,2.27v0.901h-4.389c0.021,0.528,0.178,0.939,0.469,1.236c0.293,0.296,0.702,0.444,1.229,0.444
		c0.409,0,0.798-0.043,1.163-0.128s0.746-0.221,1.145-0.408v1.437c-0.324,0.162-0.672,0.283-1.041,0.362
		S115.316,22.764,114.786,22.764z M114.523,17.031c-0.394,0-0.701,0.125-0.924,0.374c-0.225,0.25-0.353,0.604-0.385,1.062h2.605
		c-0.01-0.458-0.129-0.813-0.359-1.062C115.23,17.156,114.918,17.031,114.523,17.031z"/>
	<path fill="#8C8C8C" d="M121.834,22.764c-2.118,0-3.178-1.163-3.178-3.487c0-1.157,0.287-2.04,0.863-2.651s1.402-0.916,2.479-0.916
		c0.787,0,1.493,0.154,2.118,0.462l-0.548,1.437c-0.293-0.118-0.563-0.214-0.815-0.289c-0.252-0.075-0.503-0.113-0.755-0.113
		c-0.966,0-1.448,0.686-1.448,2.058c0,1.331,0.482,1.996,1.448,1.996c0.357,0,0.688-0.047,0.992-0.143
		c0.305-0.095,0.607-0.244,0.912-0.447v1.589c-0.299,0.19-0.604,0.322-0.909,0.396C122.688,22.728,122.301,22.764,121.834,22.764z"
		/>
	<path fill="#8C8C8C" d="M128.348,21.285c0.324,0,0.715-0.071,1.17-0.213v1.382c-0.463,0.207-1.031,0.31-1.705,0.31
		c-0.742,0-1.283-0.188-1.623-0.563c-0.338-0.375-0.508-0.938-0.508-1.689v-3.281h-0.889v-0.785l1.021-0.621l0.537-1.436h1.187
		v1.448h1.905v1.394h-1.905v3.281c0,0.264,0.073,0.458,0.222,0.584S128.104,21.285,128.348,21.285z"/>
</g>
<g enable-background="new    ">
	<path fill="#8C8C8C" d="M71.254,35.754c0,0.805-0.289,1.438-0.867,1.898c-0.578,0.464-1.383,0.695-2.414,0.695
		c-0.949,0-1.789-0.18-2.52-0.537v-1.752c0.602,0.268,1.107,0.457,1.523,0.565s0.797,0.164,1.143,0.164
		c0.414,0,0.73-0.079,0.951-0.237c0.223-0.158,0.332-0.394,0.332-0.705c0-0.176-0.049-0.33-0.146-0.467
		c-0.097-0.136-0.239-0.268-0.429-0.393c-0.189-0.127-0.573-0.326-1.153-0.604c-0.544-0.256-0.952-0.501-1.224-0.736
		c-0.271-0.234-0.489-0.508-0.651-0.821c-0.161-0.312-0.243-0.677-0.243-1.095c0-0.787,0.268-1.406,0.801-1.856
		c0.533-0.451,1.271-0.676,2.213-0.676c0.463,0,0.904,0.055,1.324,0.163c0.42,0.109,0.858,0.265,1.316,0.464l-0.607,1.467
		c-0.476-0.194-0.867-0.331-1.179-0.408c-0.311-0.077-0.616-0.114-0.916-0.114c-0.356,0-0.631,0.082-0.821,0.248
		c-0.19,0.168-0.287,0.385-0.287,0.651c0,0.167,0.039,0.312,0.117,0.437c0.076,0.123,0.198,0.242,0.367,0.358
		c0.168,0.115,0.567,0.323,1.196,0.624c0.831,0.396,1.401,0.796,1.71,1.195C71.1,34.686,71.254,35.174,71.254,35.754z"/>
	<path fill="#8C8C8C" d="M75.801,38.348c-1.096,0-1.951-0.303-2.568-0.906c-0.616-0.604-0.926-1.461-0.926-2.568
		c0-1.141,0.285-2.021,0.855-2.645s1.357-0.936,2.365-0.936c0.961,0,1.709,0.273,2.244,0.821c0.537,0.548,0.805,1.305,0.805,2.271
		v0.901h-4.389c0.021,0.526,0.177,0.938,0.469,1.235c0.292,0.295,0.701,0.443,1.229,0.443c0.41,0,0.799-0.043,1.163-0.128
		c0.365-0.085,0.746-0.222,1.146-0.407v1.437c-0.325,0.163-0.672,0.282-1.041,0.362C76.783,38.307,76.332,38.348,75.801,38.348z
		 M75.539,32.613c-0.395,0-0.702,0.125-0.925,0.375c-0.224,0.248-0.353,0.604-0.384,1.062h2.604
		c-0.009-0.458-0.128-0.812-0.358-1.062C76.245,32.738,75.934,32.613,75.539,32.613z"/>
	<path fill="#8C8C8C" d="M81.941,38.227h-1.856v-9.472h1.856V38.227z"/>
	<path fill="#8C8C8C" d="M86.971,38.348c-1.097,0-1.953-0.303-2.568-0.906c-0.617-0.604-0.926-1.461-0.926-2.568
		c0-1.141,0.284-2.021,0.854-2.645c0.569-0.623,1.358-0.936,2.364-0.936c0.962,0,1.711,0.273,2.246,0.821s0.804,1.305,0.804,2.271
		v0.901h-4.39c0.021,0.526,0.178,0.938,0.47,1.235c0.292,0.295,0.702,0.443,1.229,0.443c0.409,0,0.797-0.043,1.162-0.128
		s0.746-0.222,1.145-0.407v1.437c-0.324,0.163-0.672,0.282-1.041,0.362C87.952,38.307,87.501,38.348,86.971,38.348z M86.708,32.613
		c-0.394,0-0.702,0.125-0.925,0.375c-0.225,0.248-0.352,0.604-0.385,1.062h2.605c-0.009-0.458-0.128-0.812-0.359-1.062
		C87.414,32.738,87.102,32.613,86.708,32.613z"/>
	<path fill="#8C8C8C" d="M94.02,38.348c-2.119,0-3.179-1.162-3.179-3.488c0-1.155,0.288-2.039,0.864-2.649s1.402-0.916,2.479-0.916
		c0.787,0,1.492,0.154,2.117,0.463l-0.548,1.437c-0.292-0.117-0.563-0.215-0.815-0.289s-0.502-0.112-0.754-0.112
		c-0.967,0-1.449,0.687-1.449,2.058c0,1.332,0.482,1.996,1.449,1.996c0.356,0,0.688-0.048,0.991-0.143
		c0.306-0.096,0.608-0.245,0.913-0.447v1.588c-0.3,0.191-0.604,0.323-0.91,0.396C94.872,38.311,94.484,38.348,94.02,38.348z"/>
	<path fill="#8C8C8C" d="M100.531,36.868c0.324,0,0.714-0.071,1.169-0.214v1.383c-0.464,0.207-1.031,0.311-1.705,0.311
		c-0.742,0-1.283-0.188-1.622-0.562s-0.508-0.938-0.508-1.688v-3.281h-0.889v-0.785l1.021-0.621l0.536-1.438h1.187v1.449h1.905
		v1.395h-1.905v3.281c0,0.264,0.074,0.457,0.223,0.584C100.092,36.807,100.288,36.868,100.531,36.868z"/>
	<path fill="#8C8C8C" d="M106.154,38.348c-1.096,0-1.951-0.303-2.567-0.906c-0.616-0.604-0.926-1.461-0.926-2.568
		c0-1.141,0.284-2.021,0.854-2.645s1.358-0.936,2.365-0.936c0.961,0,1.71,0.273,2.245,0.821c0.536,0.548,0.804,1.305,0.804,2.271
		v0.901h-4.389c0.021,0.526,0.177,0.938,0.469,1.235c0.292,0.295,0.702,0.443,1.229,0.443c0.41,0,0.799-0.043,1.164-0.128
		s0.746-0.222,1.145-0.407v1.437c-0.324,0.163-0.672,0.282-1.041,0.362C107.137,38.307,106.688,38.348,106.154,38.348z
		 M105.895,32.613c-0.395,0-0.703,0.125-0.926,0.375c-0.224,0.248-0.352,0.604-0.384,1.062h2.604
		c-0.008-0.458-0.127-0.812-0.358-1.062S106.287,32.613,105.895,32.613z"/>
	<path fill="#8C8C8C" d="M112.596,38.348c-0.801,0-1.429-0.311-1.885-0.932c-0.457-0.621-0.686-1.48-0.686-2.581
		c0-1.114,0.231-1.985,0.697-2.606c0.465-0.623,1.104-0.936,1.92-0.936c0.855,0,1.51,0.333,1.959,0.998h0.062
		c-0.094-0.507-0.141-0.96-0.141-1.357v-2.179h1.862v9.472h-1.425l-0.359-0.884h-0.078
		C114.102,38.014,113.459,38.348,112.596,38.348z M113.246,36.868c0.475,0,0.822-0.138,1.044-0.414
		c0.222-0.274,0.342-0.744,0.36-1.406v-0.2c0-0.729-0.111-1.254-0.338-1.57c-0.225-0.315-0.59-0.475-1.099-0.475
		c-0.413,0-0.735,0.176-0.964,0.526s-0.346,0.86-0.346,1.53s0.117,1.172,0.349,1.507S112.814,36.868,113.246,36.868z"/>
</g>
</svg>
