<?xml version="1.0" encoding="utf-8"?>
<!-- Generator: Adobe Illustrator 15.1.0, SVG Export Plug-In . SVG Version: 6.00 Build 0)  -->
<!DOCTYPE svg PUBLIC "-//W3C//DTD SVG 1.1//EN" "http://www.w3.org/Graphics/SVG/1.1/DTD/svg11.dtd">
<svg version="1.1" id="Layer_1" xmlns="http://www.w3.org/2000/svg" xmlns:xlink="http://www.w3.org/1999/xlink" x="0px" y="0px"
	 width="160px" height="25px" viewBox="0 0 160 25" enable-background="new 0 0 160 25" xml:space="preserve">
<rect x="0.036" fill="#F3F3F3" width="160" height="25"/>
<line fill="none" stroke="#414141" stroke-miterlimit="10" x1="160.036" y1="24.53" x2="0.036" y2="24.53"/>
<line fill="none" stroke="#414141" stroke-miterlimit="10" x1="0.036" y1="0.397" x2="160.036" y2="0.397"/>
<polyline fill="none" stroke="#414141" stroke-width="2" stroke-miterlimit="10" points="140.869,10.084 146.536,15.75 
	152.202,10.084 "/>
<g enable-background="new    ">
	<path fill="#33689A" d="M17.553,17.219l-0.725-2.379h-3.644l-0.725,2.379h-2.283l3.527-10.035h2.591l3.541,10.035H17.553z
		 M16.322,13.062c-0.67-2.155-1.047-3.375-1.131-3.657s-0.145-0.506-0.181-0.67c-0.15,0.583-0.581,2.025-1.292,4.327H16.322z"/>
	<path fill="#33689A" d="M23.015,17.219H20.93V6.582h2.085V17.219z"/>
	<path fill="#33689A" d="M27.287,17.219h-2.085V6.582h2.085V17.219z"/>
	<path fill="#33689A" d="M37.521,8.845c-0.797,0-1.415,0.3-1.853,0.899c-0.438,0.599-0.656,1.434-0.656,2.505
		c0,2.229,0.836,3.343,2.509,3.343c0.702,0,1.552-0.176,2.55-0.526v1.777c-0.82,0.342-1.736,0.513-2.748,0.513
		c-1.454,0-2.566-0.441-3.336-1.322c-0.77-0.883-1.155-2.148-1.155-3.798c0-1.039,0.189-1.949,0.567-2.731
		c0.378-0.781,0.922-1.381,1.63-1.797c0.708-0.418,1.539-0.626,2.492-0.626c0.971,0,1.946,0.234,2.926,0.704l-0.684,1.723
		c-0.374-0.178-0.75-0.333-1.128-0.465S37.885,8.845,37.521,8.845z"/>
	<path fill="#33689A" d="M48.978,13.384c0,1.244-0.328,2.217-0.984,2.919s-1.57,1.053-2.741,1.053c-0.734,0-1.381-0.16-1.941-0.482
		c-0.561-0.32-0.991-0.782-1.292-1.384s-0.451-1.304-0.451-2.105c0-1.249,0.326-2.22,0.978-2.912s1.568-1.039,2.748-1.039
		c0.734,0,1.381,0.159,1.941,0.479s0.991,0.777,1.292,1.374S48.978,12.582,48.978,13.384z M43.693,13.384
		c0,0.757,0.124,1.328,0.373,1.716s0.653,0.581,1.213,0.581c0.556,0,0.956-0.192,1.2-0.577c0.244-0.386,0.366-0.959,0.366-1.72
		c0-0.757-0.123-1.324-0.369-1.702s-0.649-0.567-1.21-0.567c-0.556,0-0.957,0.188-1.203,0.563
		C43.816,12.055,43.693,12.623,43.693,13.384z"/>
	<path fill="#33689A" d="M56.114,17.219l-0.28-0.978h-0.109c-0.223,0.355-0.54,0.63-0.95,0.823c-0.41,0.194-0.877,0.291-1.401,0.291
		c-0.898,0-1.575-0.24-2.03-0.721c-0.456-0.481-0.684-1.173-0.684-2.075V9.576h2.085v4.464c0,0.552,0.098,0.965,0.294,1.241
		c0.196,0.275,0.508,0.413,0.937,0.413c0.583,0,1.005-0.194,1.265-0.585c0.26-0.389,0.39-1.035,0.39-1.938V9.576h2.085v7.643H56.114
		z"/>
	<path fill="#33689A" d="M66.956,17.219h-2.085v-4.464c0-0.552-0.098-0.965-0.294-1.241c-0.196-0.275-0.508-0.413-0.937-0.413
		c-0.583,0-1.005,0.194-1.265,0.585c-0.26,0.389-0.39,1.035-0.39,1.938v3.596h-2.085V9.576h1.593l0.28,0.978h0.116
		c0.232-0.369,0.553-0.648,0.96-0.837c0.408-0.189,0.872-0.284,1.391-0.284c0.889,0,1.563,0.24,2.023,0.722
		c0.46,0.48,0.69,1.174,0.69,2.081V17.219z"/>
	<path fill="#33689A" d="M72.322,15.694c0.365,0,0.802-0.08,1.312-0.239v1.552c-0.52,0.232-1.158,0.349-1.914,0.349
		c-0.834,0-1.441-0.211-1.822-0.633c-0.38-0.421-0.571-1.054-0.571-1.896v-3.685H68.33V10.26l1.148-0.697l0.602-1.613h1.333v1.627
		h2.14v1.565h-2.14v3.685c0,0.296,0.083,0.515,0.25,0.656S72.049,15.694,72.322,15.694z"/>
	<path fill="#33689A" d="M75.091,7.601c0-0.679,0.378-1.019,1.135-1.019s1.135,0.34,1.135,1.019c0,0.323-0.095,0.575-0.284,0.755
		c-0.189,0.181-0.473,0.271-0.851,0.271C75.469,8.626,75.091,8.284,75.091,7.601z M77.265,17.219H75.18V9.576h2.085V17.219z"/>
	<path fill="#33689A" d="M82.911,17.355c-1.23,0-2.192-0.34-2.885-1.019c-0.693-0.679-1.039-1.641-1.039-2.885
		c0-1.28,0.32-2.271,0.96-2.97c0.64-0.7,1.525-1.05,2.656-1.05c1.08,0,1.921,0.308,2.522,0.923s0.902,1.465,0.902,2.55v1.012H81.1
		c0.023,0.593,0.198,1.055,0.526,1.388s0.788,0.499,1.381,0.499c0.46,0,0.896-0.048,1.306-0.144s0.838-0.248,1.285-0.458v1.613
		c-0.365,0.183-0.754,0.317-1.169,0.407C84.014,17.311,83.508,17.355,82.911,17.355z M82.617,10.916
		c-0.441,0-0.789,0.141-1.039,0.42c-0.25,0.281-0.395,0.679-0.431,1.193h2.926c-0.009-0.515-0.144-0.912-0.403-1.193
		C83.41,11.057,83.059,10.916,82.617,10.916z"/>
	<path fill="#33689A" d="M93.056,14.949c0,0.784-0.272,1.381-0.817,1.791c-0.544,0.41-1.359,0.615-2.443,0.615
		c-0.557,0-1.029-0.037-1.422-0.113c-0.393-0.074-0.759-0.186-1.101-0.331v-1.723c0.388,0.183,0.823,0.335,1.31,0.458
		c0.484,0.123,0.912,0.185,1.281,0.185c0.756,0,1.135-0.219,1.135-0.656c0-0.164-0.051-0.298-0.15-0.399
		c-0.1-0.104-0.273-0.219-0.52-0.35c-0.246-0.129-0.574-0.281-0.984-0.454c-0.588-0.246-1.02-0.474-1.295-0.684
		c-0.276-0.21-0.477-0.45-0.602-0.722c-0.126-0.271-0.188-0.604-0.188-1.001c0-0.679,0.263-1.204,0.79-1.575
		c0.525-0.372,1.271-0.558,2.238-0.558c0.92,0,1.816,0.2,2.687,0.602l-0.629,1.504c-0.383-0.164-0.741-0.299-1.073-0.403
		s-0.672-0.157-1.019-0.157c-0.615,0-0.923,0.166-0.923,0.499c0,0.187,0.1,0.349,0.297,0.485c0.199,0.137,0.633,0.34,1.303,0.608
		c0.598,0.241,1.035,0.467,1.312,0.677s0.482,0.451,0.615,0.725S93.056,14.571,93.056,14.949z"/>
</g>
</svg>
