<?xml version="1.0" encoding="utf-8"?>
<!-- Generator: Adobe Illustrator 15.1.0, SVG Export Plug-In . SVG Version: 6.00 Build 0)  -->
<!DOCTYPE svg PUBLIC "-//W3C//DTD SVG 1.1//EN" "http://www.w3.org/Graphics/SVG/1.1/DTD/svg11.dtd">
<svg version="1.1" id="Layer_1" xmlns="http://www.w3.org/2000/svg" xmlns:xlink="http://www.w3.org/1999/xlink" x="0px" y="0px"
	 width="24px" height="24px" viewBox="0 0 24 24" enable-background="new 0 0 24 24" xml:space="preserve">
<rect y="0" fill="#808080" width="24" height="24"/>
<g>
	<polygon fill="#FFFFFF" points="11.673,2 9.709,2 7.683,8.255 11.271,8.255 	"/>
	<polygon fill="#FFFFFF" points="11.921,2 12.322,8.255 15.924,8.255 13.893,2 	"/>
	<polygon fill="#FFFFFF" points="12.453,10.847 16.561,10.847 19.709,22 13.085,22 	"/>
	<polygon fill="#FFFFFF" points="11.143,10.847 7.035,10.847 3.889,22 10.511,22 	"/>
	<polygon fill="#FFFFFF" points="22,9.12 2,9.12 2,10.048 4.107,10.048 3.74,11.678 6.097,11.678 5.737,10.048 17.842,10.048 
		17.477,11.678 19.833,11.678 19.468,10.048 22,10.048 	"/>
</g>
</svg>
