<?xml version="1.0" encoding="utf-8"?>
<!-- Generator: Adobe Illustrator 15.1.0, SVG Export Plug-In . SVG Version: 6.00 Build 0)  -->
<!DOCTYPE svg PUBLIC "-//W3C//DTD SVG 1.1//EN" "http://www.w3.org/Graphics/SVG/1.1/DTD/svg11.dtd">
<svg version="1.1" id="Layer_1" xmlns="http://www.w3.org/2000/svg" xmlns:xlink="http://www.w3.org/1999/xlink" x="0px" y="0px"
	 width="24px" height="24px" viewBox="0 0 24 24" enable-background="new 0 0 24 24" xml:space="preserve">
<rect y="0" fill="#808080" width="24" height="24"/>
<path fill="#FFFFFF" d="M3.59,2H2v20h14.477H22V2H3.59z M2.5,21.5v-19h0.866L3.9,3.366l1.45,1.301L6.054,5.76l1.44,1.022
	l0.861,1.307l0.349,1.029L8.657,9.656l0.201,0.662l0.532,0.166l0.996,1.022l1.306,0.101l0.248-1.614l0.626-0.656l0.781,0.597
	l1.022,0.319l0.606-0.798l0.273-0.023l0.314,0.715l-0.738,0.023l-0.594,0.26l-0.637-0.308l-1,0.756l0.454,0.526l0.187,0.662
	l0.35,0.384l-0.033,0.526l0.604,0.448l0.444,1.839l-1.059-0.97l-0.751-0.207l-0.201-0.407l0.067-1.022l-0.158-0.39l-0.756,0.195
	l0.129,1.04l-0.163,1.184l0.425,0.289l0.383,1.111l-0.125,0.928l0.091,0.451l0.866,0.855l0.676,0.828l0.517,0.35l0.896,0.023
	l0.258-0.207l0.531,0.399l0.502,1.078L16.607,21.5H2.5z"/>
</svg>
