<?xml version="1.0" encoding="utf-8"?>
<!-- Generator: Adobe Illustrator 15.1.0, SVG Export Plug-In . SVG Version: 6.00 Build 0)  -->
<!DOCTYPE svg PUBLIC "-//W3C//DTD SVG 1.1//EN" "http://www.w3.org/Graphics/SVG/1.1/DTD/svg11.dtd">
<svg version="1.1" id="Layer_1" xmlns="http://www.w3.org/2000/svg" xmlns:xlink="http://www.w3.org/1999/xlink" x="0px" y="0px"
	 width="24px" height="24px" viewBox="0 0 24 24" enable-background="new 0 0 24 24" xml:space="preserve">
<rect y="0" fill="#808080" width="24" height="24"/>
<path fill="#FFFFFF" d="M16.666,2H7.333L2,22h20L16.666,2z M12.667,21.27h-1.334V18.6h1.334V21.27z M12.667,5.259h-1.334V2.591
	h1.334V5.259z M15.316,13.758c0,0.666-0.243,1.217-0.73,1.646c-0.486,0.434-1.003,0.699-1.923,0.801v1.496h-1.334v-1.455
	c-1.14-0.018-1.845-0.193-2.576-0.523v-1.455c0.396,0.192,0.857,0.354,1.386,0.486c0.529,0.13,0.772,0.198,1.19,0.204v-2.579
	l-0.35-0.214c-0.753-0.29-1.304-0.636-1.651-1.038c-0.347-0.402-0.52-0.9-0.52-1.493c0-0.634,0.247-1.156,0.741-1.565
	c0.494-0.409,0.934-0.657,1.78-0.745V6.167h1.333v1.137c0.934,0.033,1.631,0.221,2.468,0.565l-0.503,1.262
	c-0.723-0.285-1.251-0.455-1.964-0.511v2.51L13,11.33c0.873,0.335,1.477,0.689,1.812,1.062
	C15.146,12.766,15.316,13.221,15.316,13.758z M10.429,9.62c0,0.263,0.082,0.48,0.245,0.655c0.163,0.175,0.228,0.347,0.656,0.517
	V8.648c-0.368,0.056-0.418,0.168-0.611,0.338C10.525,9.157,10.429,9.368,10.429,9.62z M13.689,13.859
	c0-0.266-0.094-0.485-0.279-0.657c-0.186-0.173-0.309-0.341-0.747-0.5V14.9C13.473,14.777,13.689,14.432,13.689,13.859z"/>
</svg>
