<?xml version="1.0" encoding="utf-8"?>
<!-- Generator: Adobe Illustrator 15.1.0, SVG Export Plug-In . SVG Version: 6.00 Build 0)  -->
<!DOCTYPE svg PUBLIC "-//W3C//DTD SVG 1.1//EN" "http://www.w3.org/Graphics/SVG/1.1/DTD/svg11.dtd">
<svg version="1.1" id="Layer_1" xmlns="http://www.w3.org/2000/svg" xmlns:xlink="http://www.w3.org/1999/xlink" x="0px" y="0px"
	 width="24px" height="24px" viewBox="0 0 24 24" enable-background="new 0 0 24 24" xml:space="preserve">
<rect y="0" fill="#808080" width="24" height="24"/>
<g>
	<polygon fill="#FFFFFF" points="7.837,6.773 7.912,6.481 7.695,6.429 7.455,6.543 7.603,6.847 	"/>
	<polygon fill="#FFFFFF" points="8.49,7.493 8.187,7.493 7.975,7.722 7.94,7.951 8.101,8.037 	"/>
	<polygon fill="#FFFFFF" points="8.729,7.419 8.729,7.23 8.649,7.23 8.649,7.122 8.29,7.122 8.026,7.23 7.975,7.362 8.181,7.419 	
		"/>
	<polygon fill="#FFFFFF" points="8.827,7.201 8.827,7.419 9.016,7.373 	"/>
	<path fill="#FFFFFF" d="M20.967,10.047c-0.012-0.052-0.023-0.104-0.035-0.156l-0.029,0.034L20.967,10.047z"/>
	<polygon fill="#FFFFFF" points="7.153,5.103 7.153,4.959 6.825,4.959 6.808,5.028 6.607,5.028 6.607,5.045 6.607,5.229 
		7.059,5.229 	"/>
	<polygon fill="#FFFFFF" points="9.428,7.974 9.428,7.796 9.079,7.693 9.056,7.693 9.056,7.859 9.136,7.974 	"/>
	<path fill="#FFFFFF" d="M16.223,6.074l0.084-0.129l0.301-0.061l0.076,0.367l0.162,0.259l0.105,0.123l0.193,0.076l-0.184,0.218
		L16.607,6.96H16.34l0.03-0.316l0.222-0.046L16.573,6.45l-0.207-0.13l-0.144-0.1V6.074L16.223,6.074z M15.727,6.647l0.186-0.294
		l0.247-0.057l0.176,0.077l-0.017,0.198l-0.379,0.267h-0.213V6.647L15.727,6.647z M10.741,7.775l-0.192,0.017l0.01-0.132
		l0.086-0.106l0.114,0.09L10.741,7.775z M11.411,7.541L11.28,7.552l-0.026,0.127l-0.101,0.062l-0.161,0.014
		c-0.005-0.038-0.009-0.067-0.009-0.067H10.92V7.552h0.263l0.055-0.14l0.104-0.002l0.12,0.025L11.411,7.541z"/>
	<path fill="#FFFFFF" d="M20.115,7.9v0.405l0.179-0.024l0.095,0.003c-0.065-0.152-0.139-0.302-0.215-0.45L20.115,7.9z"/>
	<path fill="#FFFFFF" d="M7.146,5.657c0,0,0.017-0.2,0-0.2c-0.018,0-0.218,0.034-0.218,0.034l-0.32,0.092l0.086,0.103L7.146,5.657z"
		/>
	<polygon fill="#FFFFFF" points="9.382,7.552 9.241,7.465 9.159,7.552 9.27,7.645 	"/>
	<path fill="#FFFFFF" d="M8.673,7.796l0.171-0.032l0.137-0.088V7.493H8.673C8.673,7.522,8.673,7.796,8.673,7.796z"/>
	<path fill="#FFFFFF" d="M21.299,8.306L21.27,8.137l-0.056-0.022c0.026,0.062,0.052,0.127,0.076,0.191H21.299z"/>
	<polygon fill="#FFFFFF" points="8.673,7.957 8.535,7.969 8.49,8.168 8.781,8.168 8.913,8.037 8.913,7.859 8.701,7.888 	"/>
	<path fill="#FFFFFF" d="M4.25,7.095C4.12,7.299,3.997,7.509,3.883,7.724l0.381-0.463L4.25,7.095z"/>
	<path fill="#FFFFFF" d="M18.275,6.355l0.041,0.131l0.629,0.006l0.181-0.268c-0.146-0.178-0.297-0.349-0.453-0.516l-0.002,0.446
		L18.275,6.355z"/>
	<polygon fill="#FFFFFF" points="16.574,6.449 16.593,6.597 16.371,6.643 16.341,6.959 16.607,6.959 16.963,6.925 17.145,6.708 
		16.951,6.632 16.846,6.509 16.684,6.25 16.607,5.884 16.307,5.945 16.223,6.074 16.223,6.22 16.367,6.319 	"/>
	<polygon fill="#FFFFFF" points="16.316,6.57 16.333,6.372 16.157,6.296 15.91,6.353 15.727,6.647 15.727,6.837 15.939,6.837 	"/>
	<path fill="#FFFFFF" d="M11.238,7.413l-0.054,0.14h-0.263v0.136h0.062c0,0,0.004,0.029,0.009,0.067l0.162-0.014l0.101-0.062
		l0.026-0.126l0.13-0.011l0.051-0.106L11.343,7.41L11.238,7.413z"/>
	<polygon fill="#FFFFFF" points="10.56,7.659 10.55,7.792 10.741,7.775 10.76,7.642 10.646,7.552 	"/>
	<path fill="#FFFFFF" d="M21.998,11.897c-0.004-0.292-0.018-0.583-0.046-0.869c-0.093-0.953-0.32-1.867-0.662-2.723
		c-0.024-0.063-0.049-0.128-0.075-0.191c-0.455-1.075-1.095-2.053-1.876-2.897c-0.051-0.055-0.104-0.109-0.155-0.163
		c-0.146-0.153-0.3-0.303-0.457-0.446C16.949,2.988,14.588,2,12,2C9.39,2,7.012,3.006,5.229,4.649
		C4.814,5.032,4.433,5.45,4.086,5.897C2.78,7.587,2,9.704,2,12c0,5.516,4.486,10,10,10c3.879,0,7.247-2.221,8.904-5.456
		c0.354-0.692,0.631-1.43,0.816-2.203c0.047-0.194,0.088-0.393,0.122-0.593C21.943,13.18,22,12.598,22,12
		C22,11.966,21.998,11.932,21.998,11.897z M20.115,7.9l0.059-0.065c0.076,0.148,0.146,0.298,0.215,0.45l-0.095-0.004l-0.179,0.025
		V7.9z M18.67,6.155l0.002-0.447c0.157,0.167,0.309,0.338,0.453,0.516l-0.18,0.268l-0.631-0.006l-0.039-0.131L18.67,6.155z
		 M20.753,9.461h-0.731l-0.444-0.332l-0.472,0.045V9.46h-0.146l-0.16-0.114L17.986,9.14V8.614l-1.029,0.08l-0.318,0.171h-0.41
		l-0.201-0.02l-0.494,0.276V9.64l-1.016,0.732l0.084,0.312h0.205l-0.054,0.298l-0.146,0.053L14.6,11.813l0.877,1h0.383l0.021-0.062
		h0.688l0.197-0.183h0.389l0.216,0.213l0.579,0.061l-0.076,0.771l0.645,1.137l-0.34,0.648l0.023,0.305l0.267,0.268v0.732
		l0.353,0.472v0.609h0.303c-1.686,2.069-4.249,3.394-7.118,3.394c-5.061,0-9.177-4.117-9.177-9.178c0-1.274,0.262-2.488,0.732-3.591
		V8.122l0.329-0.398C3.998,7.509,4.12,7.299,4.25,7.095l0.015,0.166l-0.38,0.463C3.766,7.947,3.656,8.175,3.556,8.409v0.522
		l0.381,0.183V9.84l0.366,0.624L4.6,10.51l0.039-0.214L4.288,9.755L4.219,9.229h0.206L4.511,9.77l0.507,0.74l-0.131,0.239
		l0.323,0.493l0.801,0.198v-0.129l0.32,0.045l-0.03,0.229l0.251,0.046l0.389,0.106l0.549,0.625l0.701,0.053l0.069,0.571l-0.48,0.337
		l-0.023,0.511l-0.068,0.312l0.694,0.869l0.053,0.297c0,0,0.251,0.067,0.283,0.067c0.03,0,0.564,0.405,0.564,0.405v1.568l0.19,0.056
		l-0.13,0.725l0.32,0.429l-0.059,0.719l0.423,0.744l0.545,0.475l0.546,0.01l0.054-0.176l-0.402-0.338l0.023-0.168l0.072-0.205
		l0.015-0.21l-0.271-0.009l-0.137-0.172l0.226-0.217l0.03-0.164l-0.252-0.072l0.015-0.151l0.358-0.054l0.545-0.262l0.183-0.336
		l0.572-0.732l-0.13-0.572l0.176-0.305l0.526,0.016l0.354-0.281l0.114-1.104l0.394-0.499l0.067-0.321l-0.358-0.113l-0.235-0.39
		l-0.809-0.008l-0.641-0.244l-0.03-0.457l-0.214-0.374l-0.58-0.008l-0.333-0.526l-0.298-0.145l-0.015,0.16l-0.542,0.032
		l-0.198-0.276l-0.564-0.115l-0.465,0.537l-0.732-0.124l-0.054-0.824l-0.534-0.092l0.214-0.405l-0.061-0.232l-0.702,0.469
		L6.057,10.99l-0.158-0.345l0.096-0.356L6.239,9.84L6.8,9.556h1.083L7.88,9.886l0.389,0.181L8.238,9.503l0.281-0.282l0.566-0.372
		l0.039-0.262L9.688,8l0.6-0.332l-0.054-0.044l0.406-0.382l0.149,0.04l0.068,0.085l0.154-0.171l0.039-0.018l-0.169-0.024
		l-0.172-0.057V6.933L10.8,6.858H11l0.092,0.04l0.08,0.161l0.097-0.015V7.03l0.028,0.01l0.281-0.043l0.04-0.138l0.16,0.041v0.149
		l-0.149,0.102l0,0l0.022,0.163l0.51,0.157c0,0,0,0.002,0.001,0.006l0.117-0.01l0.008-0.221l-0.403-0.183l-0.023-0.106l0.335-0.114
		l0.015-0.321L11.86,6.308l-0.023-0.541l-0.48,0.236h-0.175l0.046-0.412l-0.654-0.154l-0.271,0.205v0.624L9.816,6.419L9.622,6.826
		L9.41,6.86V6.34L8.953,6.277L8.724,6.128L8.632,5.791L9.45,5.312l0.4-0.122l0.041,0.269l0.223-0.012l0.018-0.135l0.233-0.033
		l0.004-0.047L10.268,5.19l-0.023-0.143l0.287-0.024l0.173-0.18l0.009-0.013l0.002,0.001l0.053-0.054L11.371,4.7l0.267,0.226
		l-0.699,0.373l0.889,0.209l0.115-0.297h0.389l0.137-0.259l-0.274-0.069V4.555l-0.862-0.381l-0.595,0.068l-0.335,0.176l0.023,0.427
		l-0.351-0.053l-0.054-0.237l0.335-0.305l-0.61-0.03L9.571,4.273L9.495,4.479l0.229,0.039L9.678,4.746L9.29,4.769L9.229,4.921
		L8.665,4.937c0,0-0.016-0.32-0.039-0.32c-0.022,0,0.442-0.008,0.442-0.008l0.336-0.328L9.221,4.189L8.978,4.426L8.573,4.403
		L8.329,4.067H7.81L7.269,4.471h0.496L7.81,4.617l-0.129,0.12L8.23,4.751L8.314,4.95L7.696,4.927l-0.03-0.152L7.277,4.69
		L7.071,4.576L6.609,4.58C8.124,3.476,9.986,2.823,12,2.823c2.32,0,4.441,0.868,6.059,2.293L17.95,5.311l-0.425,0.166L17.35,5.67
		l0.039,0.226l0.219,0.03l0.134,0.329l0.377-0.152l0.062,0.44h-0.115l-0.31-0.045l-0.342,0.058L17.08,7.024l-0.475,0.075
		l-0.068,0.406l0.199,0.047L16.68,7.813l-0.472-0.094l-0.433,0.094l-0.092,0.241l0.073,0.505l0.257,0.119l0.424-0.002l0.289-0.026
		l0.088-0.229l0.449-0.584l0.295,0.061l0.291-0.263l0.055,0.206l0.716,0.483l-0.087,0.118L18.21,8.424L18.335,8.6l0.198,0.043
		l0.232-0.097L18.76,8.265l0.104-0.052l-0.085-0.088L18.305,7.86l-0.127-0.354h0.397l0.127,0.125l0.342,0.295l0.015,0.356
		l0.354,0.377l0.132-0.518l0.246-0.134l0.046,0.423l0.24,0.263l0.478-0.008c0.094,0.238,0.176,0.48,0.25,0.728L20.753,9.461z
		 M20.9,9.924L20.93,9.89c0.012,0.052,0.024,0.104,0.036,0.156L20.9,9.924z"/>
	<path fill="#FFFFFF" d="M3.555,8.122v0.287c0.1-0.234,0.21-0.461,0.329-0.685L3.555,8.122z"/>
</g>
</svg>
