<?xml version="1.0" encoding="utf-8"?>
<!-- Generator: Adobe Illustrator 15.1.0, SVG Export Plug-In . SVG Version: 6.00 Build 0)  -->
<!DOCTYPE svg PUBLIC "-//W3C//DTD SVG 1.1//EN" "http://www.w3.org/Graphics/SVG/1.1/DTD/svg11.dtd">
<svg version="1.1" id="Layer_1" xmlns="http://www.w3.org/2000/svg" xmlns:xlink="http://www.w3.org/1999/xlink" x="0px" y="0px"
	 width="24px" height="24px" viewBox="0 0 24 24" enable-background="new 0 0 24 24" xml:space="preserve">
<rect y="0" fill="#808080" width="24" height="24"/>
<path fill="#FFFFFF" d="M4.538,2h-0.83H2v20h14.188h0.854H22V2H4.538z M2.5,21.5v-19h0.996l0.631,1.023L5.011,4.08l1.044,1.703
	l1.441,1.023l0.86,1.307l0.35,1.028l0.153,1.201l0.531,0.164l0.996,1.022l1.306,0.102l0.249-1.614l0.625-0.656l0.781,0.598
	l1.024,0.319l0.606-0.799l0.588,0.692l-1.334,0.283l-0.637-0.309l-1,0.758l0.989,1.571l-0.032,0.527l0.604,0.447l0.443,1.84
	l-1.058-0.971l-0.75-0.206l-0.201-0.409l0.066-1.021l-0.158-0.391l-0.756,0.193l0.129,1.042l-0.163,1.182L12.136,15l0.384,1.109
	l-0.125,0.93l0.379,0.696l0.013-0.006l1.231,1.412l0.681,0.474l1.03,0.028l0.217-0.131l0.256,0.192l0.41,0.879l-0.192,0.912H2.5
	V21.5z M21.5,21.5h-4.324l0.223-1.004l-0.556-1.189l-0.849-0.695l-0.465,0.279l-0.592-0.018l-0.388-0.26l-1.069-1.227l0.125-0.062
	l0.953-0.166l0.779,0.77l1.148,0.479l1.229,1.324l0.599,0.189l0.482-0.621l0.482,0.188l1.359-0.005l0.076-0.895l-0.189-0.773
	l-0.862-0.225l-0.608-0.935l0.273-0.815l-0.422-0.291l-0.211-0.868l-0.365-0.147v-3.216l-0.163-1.482l-1.119,0.069l0.88-0.928
	l0.139-0.999L17.383,7.96l-0.005-1.774l-1.69-0.082l-0.492,0.378l-0.633-0.206l-0.248-0.821l-0.406-0.51L13.29,3.497l-0.755,0.307
	l-0.45,0.84l-1.129,0.319L10.51,4.596l-0.392-0.798L9.645,3.415L7.831,3.39L7.447,3.757L5.874,3.779L5.788,3.691L4.717,3.05
	l-0.34-0.551H21.5V21.5z"/>
</svg>
