<?xml version="1.0" encoding="utf-8"?>
<!-- Generator: Adobe Illustrator 15.1.0, SVG Export Plug-In . SVG Version: 6.00 Build 0)  -->
<!DOCTYPE svg PUBLIC "-//W3C//DTD SVG 1.1//EN" "http://www.w3.org/Graphics/SVG/1.1/DTD/svg11.dtd">
<svg version="1.1" id="Layer_1" xmlns="http://www.w3.org/2000/svg" xmlns:xlink="http://www.w3.org/1999/xlink" x="0px" y="0px"
	 width="24px" height="24px" viewBox="0 0 24 24" enable-background="new 0 0 24 24" xml:space="preserve">
<rect y="0" fill="#808080" width="24" height="24"/>
<path fill="#FFFFFF" d="M21.795,2h-6.924h-1.51H6.91H5.841H2v4.125v2.908V22h0.229H2.23h0.628h0.001h5.746H8.604h2.828h0.001h3.534
	h0.001h2.91h-0.001H22v-3.841v-1.07v-5.654v-2.83V2.856V2H21.795z M13.818,9.978L9.836,13.96l-3.462-3.462l3.981-3.982L13.818,9.978
	z M10.891,5.98l3.226-3.227l3.462,3.462l-3.226,3.226L10.891,5.98z M14.35,10.508l2.873,2.875l-3.98,3.982l-2.875-2.875
	L14.35,10.508z M14.883,9.974l3.227-3.226l2.875,2.874l-3.227,3.226L14.883,9.974z M14.923,2.5h6.372l-3.186,3.187L14.923,2.5z
	 M13.311,2.5l-2.952,2.95L7.41,2.5H13.311z M2.5,2.5h3.841l3.484,3.484L5.843,9.967L2.5,6.625V2.5z M8.382,15.415L2.5,21.297V9.533
	L8.382,15.415z M3.358,21.5l5.554-5.555l2.874,2.873L9.104,21.5H3.358z M11.933,21.5l1.268-1.268l1.267,1.268H11.933z M21.5,21.5
	h-4.123l-2.723-2.721l3.981-3.982l2.863,2.862L21.5,21.5L21.5,21.5z M21.5,16.589l-2.327-2.327l2.327-2.327V16.589z M21.5,9.075
	l-2.859-2.858l2.859-2.86V9.075z"/>
</svg>
