<?xml version="1.0" encoding="utf-8"?>
<!-- Generator: Adobe Illustrator 15.1.0, SVG Export Plug-In . SVG Version: 6.00 Build 0)  -->
<!DOCTYPE svg PUBLIC "-//W3C//DTD SVG 1.1//EN" "http://www.w3.org/Graphics/SVG/1.1/DTD/svg11.dtd">
<svg version="1.1" id="Layer_1" xmlns="http://www.w3.org/2000/svg" xmlns:xlink="http://www.w3.org/1999/xlink" x="0px" y="0px"
	 width="24px" height="24px" viewBox="0 0 24 24" enable-background="new 0 0 24 24" xml:space="preserve">
<rect y="0" fill="#808080" width="24" height="24"/>
<g>
	<path fill="#FFFFFF" d="M12,3.405c-0.388-0.002-0.702-0.317-0.702-0.702C11.298,2.311,11.614,1.996,12,2
		c0.391-0.004,0.705,0.311,0.702,0.703C12.705,3.088,12.391,3.403,12,3.405L12,3.405z"/>
	<path fill="#FFFFFF" d="M12,3.405c0.387-0.001,0.702-0.316,0.702-0.702C12.702,2.311,12.387,1.996,12,2
		c-0.391-0.004-0.705,0.311-0.702,0.703C11.295,3.088,11.609,3.403,12,3.405L12,3.405z"/>
	<path fill="#FFFFFF" d="M15.727,17.613c0.976-0.161,1.945-1.18,1.943-2.422V6.122c0.002-1.278-1.074-2.454-2.535-2.452h-3.124
		H8.875C7.407,3.668,6.33,4.844,6.331,6.122v9.069c-0.001,1.242,0.971,2.261,1.943,2.422L5.354,22h1.69l2.086-3.074h2.871h2.87
		L16.967,22h1.68L15.727,17.613z M10.352,4.606c0-0.228,0.193-0.415,0.417-0.418H12h1.232c0.223,0.003,0.416,0.19,0.416,0.418v0.711
		c0,0.227-0.183,0.418-0.416,0.417h-1.231h-1.232c-0.233,0.002-0.417-0.19-0.417-0.416V4.606L10.352,4.606z M8.813,16.29
		c-0.61-0.005-1.109-0.503-1.108-1.119c-0.001-0.614,0.497-1.112,1.108-1.108c0.618-0.004,1.117,0.494,1.119,1.108
		C9.932,15.787,9.433,16.285,8.813,16.29z M8.957,10.397c-0.701-0.004-1.274-0.484-1.272-1.272V7.497
		c0.005-0.679,0.443-1.271,1.272-1.272h3.044h3.043c0.829,0.001,1.269,0.593,1.272,1.272v1.628c0.002,0.788-0.57,1.268-1.272,1.272
		h-3.043H8.957z M14.046,15.171c-0.001-0.614,0.497-1.112,1.108-1.108c0.619-0.004,1.117,0.494,1.121,1.108
		c-0.004,0.616-0.502,1.114-1.121,1.119C14.543,16.285,14.045,15.787,14.046,15.171z"/>
</g>
</svg>
